<svg xmlns="http://www.w3.org/2000/svg" xmlns:xlink="http://www.w3.org/1999/xlink" width="2000" zoomAndPan="magnify" viewBox="0 0 1500 449.999984" height="600" preserveAspectRatio="xMidYMid meet" version="1.0"><defs><g/></defs><g fill="#ffffff" fill-opacity="1"><g transform="translate(226.451874, 394.076908)"><g><path d="M 192.035156 -71.523438 C 191.320312 -70.449219 190.25 -69.734375 189.53125 -69.734375 C 188.816406 -69.734375 186.316406 -67.945312 183.8125 -66.15625 C 179.878906 -62.582031 176.300781 -60.792969 177.730469 -63.296875 C 178.089844 -64.011719 178.089844 -64.726562 177.375 -65.085938 C 176.660156 -65.800781 175.945312 -65.085938 175.585938 -64.011719 C 175.230469 -62.582031 175.230469 -61.507812 175.945312 -60.792969 C 177.015625 -60.4375 176.660156 -59.722656 175.585938 -58.289062 C 173.796875 -57.21875 173.441406 -57.21875 174.15625 -59.003906 C 174.871094 -60.4375 174.511719 -61.152344 172.726562 -60.792969 C 170.9375 -60.4375 170.578125 -60.792969 170.578125 -62.582031 C 171.296875 -65.085938 169.507812 -65.441406 167.359375 -62.9375 C 165.929688 -61.507812 165.929688 -60.792969 167.003906 -60.792969 C 168.078125 -60.792969 168.433594 -60.4375 167.71875 -59.722656 C 167.003906 -58.648438 166.644531 -58.648438 165.929688 -59.722656 C 165.214844 -60.792969 161.28125 -58.648438 151.269531 -51.851562 C 135.175781 -40.765625 134.820312 -40.410156 134.820312 -41.839844 C 134.820312 -42.199219 136.964844 -43.984375 139.109375 -45.773438 C 143.402344 -48.636719 149.125 -53.285156 154.84375 -58.289062 C 155.917969 -59.363281 158.777344 -61.507812 161.28125 -62.582031 C 163.785156 -64.011719 165.929688 -65.800781 165.929688 -66.871094 C 165.929688 -69.019531 163.425781 -69.019531 162.710938 -66.515625 C 162.355469 -65.441406 161.28125 -64.726562 160.210938 -64.726562 C 159.136719 -64.726562 155.917969 -62.9375 153.414062 -60.792969 C 144.832031 -53.285156 140.539062 -50.421875 126.59375 -40.765625 C 118.726562 -35.761719 112.648438 -31.113281 111.933594 -30.753906 C 110.5 -28.964844 99.414062 -22.171875 98.34375 -22.171875 C 97.628906 -22.171875 96.914062 -21.457031 96.914062 -21.097656 C 96.914062 -19.667969 83.324219 -9.296875 70.089844 -0.714844 C 51.496094 11.800781 31.828125 19.667969 29.324219 15.734375 C 27.894531 13.230469 28.964844 -0.359375 31.46875 -12.160156 C 32.898438 -18.238281 33.972656 -23.246094 33.617188 -23.601562 C 32.542969 -25.03125 39.695312 -52.925781 43.269531 -60.078125 C 44.34375 -62.9375 45.417969 -65.441406 45.058594 -65.800781 C 44.703125 -66.515625 45.773438 -70.449219 47.203125 -75.457031 C 48.277344 -80.105469 50.066406 -86.183594 50.421875 -88.6875 C 52.570312 -97.269531 61.152344 -126.59375 61.867188 -128.738281 C 62.582031 -129.8125 64.726562 -136.25 66.871094 -143.042969 C 69.019531 -150.195312 71.878906 -156.992188 72.59375 -158.777344 C 73.308594 -160.566406 74.742188 -164.859375 75.097656 -168.078125 C 75.457031 -171.652344 76.527344 -174.871094 76.886719 -175.585938 C 77.242188 -176.300781 78.675781 -181.664062 80.105469 -187.03125 C 81.894531 -192.394531 85.109375 -202.40625 87.257812 -208.84375 C 89.761719 -215.636719 92.261719 -223.507812 93.335938 -226.367188 C 94.050781 -229.585938 95.480469 -233.160156 95.839844 -234.59375 C 96.554688 -236.023438 97.984375 -240.3125 99.414062 -244.246094 C 102.632812 -253.1875 108 -266.777344 109.785156 -269.636719 C 110.5 -270.710938 111.933594 -275 112.648438 -278.578125 C 114.792969 -286.804688 124.804688 -308.976562 128.023438 -313.265625 C 128.738281 -314.339844 131.242188 -318.628906 133.746094 -323.277344 C 135.535156 -327.570312 138.394531 -332.21875 139.109375 -333.292969 C 140.183594 -334.363281 143.042969 -339.730469 145.191406 -345.449219 C 147.691406 -351.171875 150.910156 -357.609375 152.699219 -359.753906 C 157.707031 -366.550781 159.851562 -372.988281 158.421875 -376.5625 C 157.707031 -378.707031 156.992188 -380.140625 156.992188 -380.496094 C 158.0625 -383.359375 151.269531 -386.574219 144.832031 -385.859375 C 141.253906 -385.503906 140.898438 -385.859375 141.613281 -388.363281 C 142.328125 -390.507812 141.972656 -390.867188 138.753906 -390.507812 C 136.964844 -390.152344 134.460938 -389.792969 133.03125 -389.792969 C 131.957031 -389.792969 130.886719 -388.722656 130.886719 -388.007812 C 130.886719 -387.292969 128.023438 -384.074219 124.804688 -380.855469 C 120.871094 -376.921875 116.9375 -371.199219 113.003906 -362.972656 C 109.429688 -356.179688 106.566406 -350.457031 105.851562 -350.457031 C 105.496094 -350.457031 104.0625 -348.3125 102.632812 -345.808594 C 101.203125 -342.949219 99.773438 -340.085938 98.699219 -339.371094 C 97.628906 -338.65625 96.554688 -335.796875 96.195312 -333.292969 C 95.839844 -330.789062 93.335938 -323.996094 90.832031 -317.914062 C 88.328125 -312.191406 84.753906 -303.96875 83.324219 -300.035156 C 81.535156 -295.742188 79.746094 -291.09375 79.390625 -289.664062 C 77.601562 -286.085938 70.808594 -266.777344 67.945312 -258.550781 C 66.515625 -254.261719 65.085938 -249.613281 64.371094 -248.539062 C 62.582031 -244.246094 58.648438 -231.375 54.355469 -217.785156 C 52.210938 -210.632812 48.992188 -200.261719 47.5625 -195.253906 C 46.132812 -189.890625 42.914062 -179.878906 40.410156 -172.367188 C 38.265625 -165.214844 34.6875 -153.773438 32.542969 -146.976562 C 28.609375 -135.535156 18.59375 -97.628906 8.941406 -59.003906 C 4.292969 -40.410156 3.574219 -36.832031 0.359375 -16.09375 C -2.503906 2.859375 -2.144531 6.078125 4.648438 17.523438 C 8.582031 24.675781 10.726562 26.464844 9.65625 21.457031 C 9.296875 20.027344 10.726562 21.457031 12.515625 24.675781 C 16.449219 31.113281 25.746094 37.90625 30.398438 38.265625 C 32.183594 38.265625 34.6875 38.980469 36.117188 39.335938 C 39.695312 40.765625 44.703125 40.765625 48.992188 39.335938 C 50.78125 38.621094 54.355469 37.550781 56.503906 37.550781 C 66.515625 36.117188 87.972656 27.179688 89.042969 23.601562 C 89.402344 22.53125 92.976562 20.027344 96.914062 17.878906 C 100.847656 15.734375 108 10.371094 113.363281 6.078125 C 118.367188 2.144531 124.804688 -2.859375 127.308594 -4.292969 C 131.957031 -7.152344 134.105469 -11.800781 130.167969 -10.371094 C 126.953125 -8.941406 131.601562 -15.019531 136.964844 -18.953125 C 139.46875 -21.097656 143.402344 -24.316406 145.546875 -26.464844 C 147.691406 -28.964844 149.839844 -30.398438 149.839844 -30.039062 C 150.195312 -29.679688 151.984375 -31.113281 153.414062 -32.542969 C 155.203125 -34.332031 156.992188 -35.761719 158.0625 -35.761719 C 158.777344 -35.761719 160.566406 -37.550781 161.996094 -39.335938 C 163.425781 -41.484375 165.929688 -43.269531 167.71875 -43.984375 C 169.507812 -44.34375 171.296875 -45.773438 171.652344 -47.203125 C 172.011719 -48.636719 173.082031 -49.707031 173.441406 -49.707031 C 175.230469 -49.707031 198.832031 -72.953125 197.757812 -73.667969 C 196.683594 -74.742188 193.109375 -73.308594 192.035156 -71.523438 Z M 31.828125 -43.984375 C 30.398438 -42.914062 30.398438 -44.703125 31.828125 -47.203125 C 32.898438 -48.636719 32.898438 -48.636719 32.898438 -46.847656 C 33.257812 -45.773438 32.542969 -44.34375 31.828125 -43.984375 Z M 33.257812 -62.9375 C 32.542969 -62.222656 31.828125 -60.078125 31.46875 -58.289062 C 31.113281 -55.785156 30.753906 -55.785156 30.753906 -59.003906 C 30.753906 -61.152344 31.46875 -64.011719 32.542969 -65.441406 C 33.972656 -67.230469 34.332031 -67.589844 34.332031 -65.800781 C 34.332031 -64.726562 33.972656 -63.296875 33.257812 -62.9375 Z M 37.191406 -58.289062 C 36.832031 -56.503906 36.476562 -54.714844 36.117188 -54.714844 C 35.761719 -54.714844 35.761719 -56.503906 35.761719 -58.289062 C 35.761719 -60.4375 36.117188 -62.222656 36.476562 -62.222656 C 37.191406 -62.222656 37.550781 -60.4375 37.191406 -58.289062 Z M 39.335938 -71.523438 C 38.621094 -71.164062 37.90625 -71.523438 37.90625 -71.878906 C 37.90625 -72.953125 38.621094 -73.667969 39.335938 -74.023438 C 40.050781 -74.382812 40.765625 -74.382812 40.765625 -73.667969 C 40.765625 -72.953125 40.050781 -71.878906 39.335938 -71.523438 Z M 37.90625 -85.46875 C 37.90625 -86.542969 38.621094 -87.257812 39.335938 -87.257812 C 40.050781 -87.257812 40.050781 -86.542969 39.695312 -85.46875 C 39.335938 -84.394531 38.621094 -83.679688 38.621094 -83.679688 C 38.265625 -83.679688 37.90625 -84.394531 37.90625 -85.46875 Z M 42.554688 -101.203125 L 44.34375 -105.496094 L 43.628906 -101.203125 C 43.269531 -98.699219 42.199219 -96.195312 41.839844 -95.480469 C 40.050781 -93.695312 40.410156 -95.839844 42.554688 -101.203125 Z M 43.628906 -83.679688 C 42.554688 -80.105469 40.410156 -79.03125 41.125 -82.25 C 41.125 -84.039062 41.839844 -85.46875 42.914062 -85.828125 C 43.628906 -85.828125 43.984375 -85.109375 43.628906 -83.679688 Z M 44.703125 -87.257812 C 43.984375 -87.257812 43.628906 -87.972656 43.628906 -89.042969 C 43.628906 -90.117188 43.984375 -91.191406 44.703125 -91.191406 C 45.058594 -91.191406 45.417969 -90.117188 45.417969 -89.042969 C 45.417969 -87.972656 45.058594 -87.257812 44.703125 -87.257812 Z M 46.847656 -95.125 C 46.488281 -94.050781 45.417969 -93.695312 45.058594 -94.765625 C 44.34375 -95.839844 46.488281 -97.984375 47.5625 -97.269531 C 47.917969 -96.914062 47.5625 -95.839844 46.847656 -95.125 Z M 46.847656 -118.726562 C 48.636719 -117.652344 46.847656 -112.289062 45.058594 -112.648438 C 43.984375 -113.003906 42.914062 -113.003906 42.199219 -112.289062 C 40.050781 -110.144531 39.695312 -112.648438 41.125 -118.011719 C 41.839844 -121.230469 43.269531 -123.019531 44.703125 -123.375 C 46.847656 -123.734375 47.203125 -123.375 46.488281 -121.585938 C 46.132812 -120.515625 46.132812 -119.085938 46.847656 -118.726562 Z M 47.5625 -98.699219 C 46.488281 -98.699219 46.132812 -99.414062 46.488281 -101.203125 C 46.847656 -102.277344 47.203125 -103.707031 47.5625 -103.707031 C 47.5625 -103.707031 48.277344 -102.277344 48.636719 -101.203125 C 48.992188 -99.414062 48.636719 -98.699219 47.5625 -98.699219 Z M 52.570312 -119.441406 C 51.496094 -113.363281 48.277344 -103.707031 48.277344 -105.851562 C 47.917969 -107.640625 51.851562 -122.660156 52.570312 -123.734375 C 53.285156 -124.089844 52.925781 -122.300781 52.570312 -119.441406 Z M 50.066406 -128.382812 C 50.421875 -128.023438 50.78125 -126.953125 50.421875 -125.878906 C 49.707031 -124.804688 49.707031 -125.164062 49.707031 -126.59375 C 49.351562 -128.023438 49.707031 -128.738281 50.066406 -128.382812 Z M 54.355469 -125.519531 C 53.640625 -125.164062 53.285156 -125.519531 53.285156 -126.234375 C 53.285156 -126.953125 53.640625 -127.308594 54.355469 -127.308594 C 55.070312 -127.308594 55.785156 -127.308594 55.785156 -126.953125 C 55.785156 -126.59375 55.070312 -125.878906 54.355469 -125.519531 Z M 54.355469 -143.042969 C 55.070312 -144.832031 55.429688 -144.832031 55.429688 -143.757812 C 55.429688 -142.6875 55.070312 -140.898438 54.355469 -139.824219 C 52.925781 -137.679688 52.925781 -139.824219 54.355469 -143.042969 Z M 62.9375 -166.289062 C 62.582031 -166.289062 61.867188 -167.003906 61.867188 -168.078125 C 61.867188 -169.148438 62.222656 -169.863281 62.222656 -169.863281 C 62.582031 -169.863281 63.296875 -169.148438 63.65625 -168.078125 C 64.011719 -167.003906 64.011719 -166.289062 62.9375 -166.289062 Z M 67.230469 -179.519531 C 65.441406 -173.441406 64.726562 -172.726562 62.222656 -173.441406 C 59.722656 -174.15625 59.363281 -173.796875 59.363281 -170.9375 C 59.363281 -169.148438 59.003906 -167.71875 58.289062 -167.71875 C 57.933594 -167.71875 57.574219 -165.929688 57.21875 -163.785156 C 57.21875 -161.28125 57.574219 -160.210938 58.289062 -160.925781 C 59.003906 -161.28125 59.363281 -160.210938 59.003906 -157.347656 C 59.003906 -155.203125 57.933594 -153.058594 57.21875 -152.699219 C 55.785156 -152.339844 55.429688 -152.699219 56.144531 -153.773438 C 56.859375 -154.488281 56.503906 -154.84375 55.785156 -154.84375 C 54.355469 -154.84375 52.925781 -151.269531 54 -149.839844 C 54.355469 -149.480469 54 -148.765625 53.285156 -148.765625 C 52.210938 -148.765625 51.851562 -147.691406 51.851562 -146.621094 C 52.210938 -145.191406 51.851562 -143.042969 50.78125 -141.613281 C 49.707031 -139.46875 49.707031 -138.753906 51.496094 -137.679688 C 52.570312 -136.964844 52.925781 -136.25 52.210938 -135.890625 C 51.496094 -135.175781 51.136719 -133.746094 51.496094 -132.316406 C 52.210938 -129.453125 52.210938 -129.453125 50.066406 -131.601562 C 47.5625 -133.746094 46.488281 -134.460938 47.5625 -132.316406 C 47.917969 -131.601562 47.5625 -130.167969 46.847656 -129.097656 C 45.773438 -127.667969 45.773438 -127.308594 46.847656 -127.308594 C 47.5625 -127.308594 47.917969 -126.953125 47.5625 -126.234375 C 46.847656 -124.804688 45.773438 -124.804688 43.628906 -125.878906 C 42.199219 -126.234375 42.199219 -126.953125 43.628906 -129.097656 C 44.703125 -130.527344 45.773438 -133.386719 46.132812 -134.820312 C 46.488281 -136.605469 47.5625 -140.539062 48.636719 -143.757812 C 49.707031 -146.976562 50.78125 -150.910156 51.496094 -153.058594 C 51.851562 -155.203125 52.210938 -157.347656 52.570312 -157.347656 C 52.570312 -157.707031 53.285156 -160.566406 54.355469 -163.425781 C 55.070312 -166.289062 56.144531 -168.792969 56.859375 -169.148438 C 57.21875 -169.507812 57.933594 -171.652344 57.933594 -174.15625 C 57.933594 -178.445312 60.4375 -185.242188 61.867188 -185.242188 C 63.65625 -185.242188 64.726562 -182.382812 63.65625 -181.664062 C 62.9375 -180.949219 62.222656 -179.878906 62.222656 -178.804688 C 61.867188 -177.375 62.222656 -177.375 64.011719 -178.804688 C 65.085938 -179.878906 65.800781 -181.664062 66.15625 -182.738281 C 66.15625 -183.8125 66.871094 -185.242188 67.230469 -185.957031 C 67.945312 -186.671875 67.589844 -187.746094 66.871094 -188.101562 C 65.085938 -189.53125 65.441406 -191.320312 67.589844 -190.605469 C 70.089844 -189.53125 69.734375 -188.101562 67.230469 -179.519531 Z M 78.316406 -217.070312 C 77.601562 -216.710938 76.886719 -216.710938 76.886719 -217.425781 C 76.886719 -218.140625 77.601562 -219.214844 78.316406 -219.574219 C 79.03125 -219.929688 79.390625 -219.929688 79.390625 -219.214844 C 79.390625 -218.5 79.03125 -217.425781 78.316406 -217.070312 Z M 88.328125 -248.539062 C 86.183594 -241.742188 85.828125 -241.027344 86.542969 -245.320312 C 86.898438 -247.824219 87.613281 -249.96875 88.328125 -251.042969 C 89.042969 -251.757812 89.042969 -251.042969 88.328125 -248.539062 Z M 105.496094 -309.332031 C 105.851562 -311.121094 106.566406 -311.476562 106.925781 -310.761719 C 106.925781 -309.691406 106.925781 -308.257812 106.210938 -307.542969 C 105.136719 -306.828125 104.78125 -307.1875 105.496094 -309.332031 Z M 101.5625 -300.035156 C 102.277344 -300.390625 102.632812 -301.824219 102.277344 -302.539062 C 102.277344 -303.253906 102.632812 -304.324219 102.992188 -304.683594 C 103.707031 -305.039062 104.0625 -303.96875 104.0625 -302.179688 C 103.707031 -300.390625 102.992188 -298.605469 102.277344 -298.246094 C 101.5625 -297.53125 100.488281 -294.671875 100.128906 -291.453125 C 99.773438 -288.234375 98.699219 -285.371094 97.984375 -285.371094 C 97.628906 -285.371094 96.914062 -284.300781 96.914062 -282.511719 C 96.914062 -281.082031 95.839844 -277.863281 94.410156 -275.359375 C 92.976562 -272.855469 91.546875 -268.921875 91.546875 -266.0625 C 91.191406 -261.054688 88.328125 -254.617188 85.828125 -252.828125 C 85.109375 -252.472656 84.394531 -250.683594 84.039062 -248.894531 C 84.039062 -247.464844 83.679688 -245.320312 82.964844 -244.605469 C 82.609375 -243.890625 81.894531 -241.742188 81.894531 -239.597656 C 81.535156 -237.453125 81.535156 -236.738281 81.535156 -237.453125 C 81.894531 -238.167969 82.964844 -238.882812 83.679688 -238.882812 C 85.109375 -238.882812 84.753906 -237.453125 82.964844 -232.089844 C 81.894531 -228.15625 80.820312 -224.578125 81.175781 -223.863281 C 81.175781 -223.148438 80.460938 -222.074219 79.746094 -221.71875 C 78.675781 -221.359375 78.316406 -222.433594 79.03125 -226.722656 C 79.746094 -231.015625 79.390625 -231.730469 78.316406 -230.65625 C 77.242188 -229.941406 76.171875 -228.15625 76.171875 -227.441406 C 75.097656 -220.289062 74.023438 -216.355469 71.523438 -211.703125 C 70.808594 -209.558594 70.808594 -208.488281 71.878906 -207.414062 C 72.953125 -205.984375 73.308594 -206.339844 72.953125 -208.128906 C 72.59375 -209.917969 73.308594 -210.988281 74.742188 -210.988281 C 76.527344 -211.347656 76.527344 -210.988281 75.8125 -207.769531 C 75.097656 -205.984375 74.023438 -203.121094 73.308594 -201.691406 C 72.59375 -200.261719 71.878906 -197.757812 71.878906 -196.328125 C 71.878906 -194.183594 71.523438 -193.824219 69.734375 -194.539062 C 67.945312 -194.898438 66.515625 -193.824219 64.726562 -190.25 C 63.296875 -187.746094 61.867188 -186.316406 61.867188 -187.386719 C 61.867188 -190.605469 67.230469 -205.269531 68.304688 -205.269531 C 69.019531 -205.269531 69.375 -204.195312 69.019531 -202.765625 C 68.304688 -201.335938 68.660156 -200.617188 70.089844 -200.617188 C 72.59375 -200.617188 72.59375 -202.40625 69.734375 -205.269531 C 67.945312 -207.414062 68.304688 -208.128906 71.164062 -215.996094 C 72.953125 -220.644531 74.382812 -225.292969 74.382812 -226.367188 C 74.382812 -227.796875 81.175781 -249.96875 83.324219 -254.976562 C 84.039062 -256.765625 85.109375 -257.835938 85.46875 -257.480469 C 86.183594 -256.765625 86.542969 -257.835938 86.183594 -258.910156 C 85.828125 -260.339844 87.613281 -266.777344 90.117188 -273.214844 C 92.621094 -279.652344 95.839844 -287.875 97.269531 -291.808594 C 98.699219 -295.386719 100.488281 -299.320312 101.5625 -300.035156 Z M 95.839844 -305.398438 C 96.554688 -306.828125 97.628906 -309.332031 98.34375 -311.121094 C 99.058594 -313.265625 99.773438 -314.339844 100.128906 -313.980469 C 100.488281 -313.625 99.773438 -311.121094 98.34375 -308.257812 C 96.914062 -305.398438 95.480469 -302.894531 95.125 -302.894531 C 94.765625 -302.894531 95.125 -303.96875 95.839844 -305.398438 Z M 22.171875 -81.175781 C 22.886719 -84.039062 23.960938 -87.972656 24.675781 -89.761719 C 25.746094 -91.546875 26.820312 -95.480469 27.179688 -98.34375 C 27.535156 -101.5625 28.25 -104.421875 28.964844 -105.136719 C 29.679688 -106.210938 31.113281 -110.859375 32.542969 -116.222656 C 33.617188 -121.230469 35.046875 -126.59375 35.761719 -127.667969 C 36.832031 -129.8125 36.832031 -129.8125 35.402344 -129.097656 C 34.332031 -128.738281 34.332031 -129.453125 35.761719 -131.242188 C 38.265625 -135.175781 41.125 -143.402344 48.277344 -167.003906 C 53.640625 -185.957031 75.457031 -251.398438 82.609375 -270.710938 C 88.6875 -287.160156 90.476562 -292.167969 91.546875 -291.453125 C 91.90625 -291.09375 91.191406 -288.949219 90.117188 -286.804688 C 89.042969 -284.65625 88.6875 -282.152344 89.042969 -281.796875 C 89.402344 -280.722656 88.328125 -277.863281 86.542969 -274.644531 C 84.753906 -271.425781 83.324219 -267.847656 83.324219 -266.417969 C 83.324219 -265.347656 82.609375 -263.914062 82.25 -263.914062 C 81.535156 -263.914062 80.460938 -262.128906 80.105469 -259.265625 C 79.746094 -256.765625 78.675781 -252.828125 77.601562 -251.042969 C 75.097656 -244.960938 69.375 -227.796875 68.304688 -222.074219 C 67.589844 -219.214844 65.800781 -213.851562 64.726562 -210.273438 C 62.9375 -206.339844 61.867188 -202.050781 61.867188 -200.617188 C 61.867188 -197.402344 59.363281 -191.320312 57.574219 -189.890625 C 57.21875 -189.53125 56.503906 -187.746094 56.503906 -185.957031 C 56.503906 -183.8125 56.144531 -182.382812 55.429688 -182.023438 C 54.714844 -181.664062 54.355469 -179.878906 54.355469 -178.089844 C 54.355469 -176.660156 54 -174.871094 53.285156 -174.511719 C 52.210938 -174.15625 51.851562 -172.726562 52.210938 -171.296875 C 52.210938 -170.222656 51.851562 -168.078125 50.78125 -167.003906 C 49.707031 -165.929688 48.992188 -162.710938 48.992188 -160.210938 C 48.992188 -157.707031 48.636719 -155.203125 48.277344 -154.488281 C 47.5625 -153.773438 46.488281 -149.480469 45.058594 -144.832031 C 43.984375 -140.539062 42.199219 -135.890625 41.839844 -134.105469 C 38.980469 -126.953125 37.90625 -124.089844 38.265625 -123.019531 C 38.980469 -120.871094 33.972656 -106.925781 32.183594 -106.566406 C 31.113281 -106.210938 30.398438 -105.136719 30.398438 -104.78125 C 30.398438 -104.0625 31.113281 -103.707031 31.828125 -104.421875 C 33.617188 -105.136719 32.183594 -99.414062 29.679688 -94.410156 C 28.964844 -92.261719 28.25 -90.476562 28.609375 -89.761719 C 28.964844 -89.402344 27.894531 -87.613281 26.820312 -86.183594 C 25.390625 -84.753906 24.675781 -83.679688 25.746094 -83.679688 C 26.464844 -83.679688 26.820312 -82.609375 26.105469 -81.175781 C 25.746094 -80.105469 25.390625 -78.316406 25.390625 -77.601562 C 25.03125 -76.886719 24.316406 -75.8125 23.246094 -75.8125 C 21.8125 -75.8125 21.8125 -77.242188 22.171875 -81.175781 Z M 5.007812 -12.160156 C 4.648438 -11.800781 4.292969 -7.152344 3.933594 -2.144531 C 3.933594 6.792969 3.574219 7.867188 2.503906 5.722656 C 1.429688 4.292969 3.21875 -13.230469 4.648438 -13.230469 C 5.007812 -13.230469 5.363281 -12.875 5.007812 -12.160156 Z M 10.371094 -13.945312 C 9.65625 -10.371094 8.582031 -2.503906 8.226562 3.574219 C 7.511719 12.515625 6.792969 13.945312 6.078125 11.445312 C 5.722656 9.296875 6.078125 2.859375 7.152344 -4.648438 C 8.226562 -11.800781 8.941406 -17.878906 8.582031 -18.59375 C 8.226562 -18.953125 8.226562 -20.027344 8.941406 -21.097656 C 9.296875 -21.8125 10.011719 -23.601562 10.011719 -25.03125 C 10.371094 -26.464844 11.800781 -33.257812 13.589844 -40.050781 C 15.378906 -47.203125 17.523438 -57.21875 18.59375 -62.9375 C 20.027344 -68.304688 21.097656 -73.308594 21.8125 -74.023438 C 23.601562 -75.457031 23.246094 -68.304688 21.8125 -66.15625 C 20.742188 -64.726562 21.097656 -64.011719 22.886719 -63.296875 C 24.675781 -62.582031 24.675781 -62.582031 22.886719 -62.222656 C 21.457031 -62.222656 20.382812 -61.152344 20.382812 -59.722656 C 20.382812 -58.648438 19.667969 -54.714844 18.953125 -51.136719 C 17.164062 -45.773438 15.734375 -39.335938 12.875 -25.746094 C 12.515625 -22.53125 11.445312 -17.523438 10.371094 -13.945312 Z M 15.019531 -0.714844 L 12.875 2.144531 L 12.875 -0.359375 C 12.875 -3.21875 15.019531 -5.363281 16.449219 -3.933594 C 16.808594 -3.574219 16.09375 -2.144531 15.019531 -0.714844 Z M 24.316406 -7.511719 C 23.601562 -4.648438 22.886719 0 22.886719 2.859375 C 22.886719 5.722656 22.171875 8.226562 21.457031 8.226562 C 20.742188 8.226562 20.742188 6.078125 21.097656 3.933594 C 21.457031 1.789062 22.53125 -3.933594 23.246094 -8.941406 C 23.960938 -13.945312 25.03125 -18.238281 25.746094 -18.953125 C 26.820312 -20.027344 26.464844 -15.019531 24.316406 -7.511719 Z M 25.390625 -43.628906 C 26.820312 -39.695312 25.390625 -36.117188 23.246094 -37.550781 C 22.171875 -38.265625 21.8125 -36.832031 21.8125 -33.257812 C 21.8125 -30.039062 21.457031 -26.464844 21.097656 -25.03125 C 20.742188 -23.246094 21.097656 -22.171875 21.8125 -22.171875 C 22.53125 -22.171875 22.886719 -21.457031 22.886719 -20.742188 C 22.886719 -19.667969 21.8125 -19.667969 20.382812 -20.027344 C 19.3125 -20.382812 17.878906 -20.027344 17.878906 -19.3125 C 17.878906 -18.953125 18.59375 -18.238281 19.3125 -18.238281 C 20.027344 -18.238281 20.027344 -17.523438 19.667969 -16.449219 C 18.953125 -14.660156 18.59375 -14.660156 17.878906 -16.09375 C 17.164062 -17.164062 16.808594 -17.164062 16.808594 -16.09375 C 16.808594 -15.378906 17.523438 -14.304688 18.953125 -13.589844 C 20.742188 -12.515625 20.742188 -12.160156 18.953125 -8.582031 C 17.878906 -6.792969 16.808594 -6.078125 16.808594 -7.152344 C 16.808594 -8.582031 16.449219 -8.582031 15.378906 -7.152344 C 14.304688 -5.363281 14.304688 -5.363281 14.304688 -6.792969 C 14.304688 -9.65625 16.808594 -25.03125 17.523438 -27.179688 C 17.878906 -28.25 18.238281 -29.324219 18.238281 -30.039062 C 17.523438 -32.898438 25.390625 -64.726562 26.820312 -64.726562 C 27.179688 -64.726562 27.535156 -66.871094 27.535156 -69.375 C 27.535156 -74.023438 29.324219 -80.460938 32.183594 -87.257812 C 32.898438 -89.042969 33.617188 -91.546875 33.972656 -92.621094 C 36.476562 -105.851562 41.125 -113.363281 44.703125 -109.785156 C 46.132812 -108.714844 45.417969 -108.355469 43.628906 -108.714844 C 41.839844 -109.070312 41.125 -108.355469 40.765625 -106.210938 C 40.410156 -100.488281 38.980469 -95.480469 37.550781 -94.050781 C 36.832031 -93.335938 36.117188 -90.832031 35.761719 -88.6875 C 35.761719 -86.183594 35.046875 -84.039062 34.332031 -83.679688 C 32.542969 -83.324219 32.898438 -74.742188 34.332031 -74.742188 C 35.046875 -74.742188 35.761719 -75.8125 35.761719 -76.886719 C 35.761719 -77.957031 36.117188 -78.316406 36.476562 -77.601562 C 36.832031 -76.886719 36.117188 -74.382812 35.046875 -71.878906 C 33.972656 -69.375 33.257812 -68.660156 33.257812 -70.089844 C 32.898438 -72.953125 30.398438 -71.523438 30.398438 -68.660156 C 30.398438 -67.230469 29.679688 -65.441406 28.609375 -64.726562 C 27.535156 -63.65625 27.179688 -62.9375 27.894531 -62.222656 C 28.964844 -61.867188 28.25 -59.003906 26.820312 -54.355469 C 24.675781 -48.636719 24.316406 -46.132812 25.390625 -43.628906 Z M 27.894531 -32.183594 C 27.894531 -33.257812 28.609375 -34.6875 29.324219 -35.761719 C 30.398438 -37.550781 30.398438 -37.550781 30.398438 -35.761719 C 30.398438 -34.6875 30.039062 -33.257812 29.324219 -32.183594 C 28.25 -30.398438 27.894531 -30.398438 27.894531 -32.183594 Z M 118.367188 -1.429688 C 117.652344 -1.074219 116.9375 -1.074219 116.9375 -1.789062 C 116.9375 -2.503906 117.652344 -3.21875 118.367188 -3.21875 C 119.085938 -3.21875 119.800781 -3.21875 119.800781 -2.503906 C 119.800781 -2.503906 119.085938 -1.789062 118.367188 -1.429688 Z M 128.382812 -29.324219 C 127.308594 -28.964844 125.519531 -28.25 124.449219 -28.25 C 123.375 -28.609375 123.734375 -29.324219 125.878906 -31.113281 C 128.023438 -32.898438 129.097656 -32.898438 129.453125 -32.183594 C 129.8125 -31.113281 129.097656 -30.039062 128.382812 -29.324219 Z M 128.382812 -35.761719 C 126.953125 -35.761719 126.953125 -36.832031 128.382812 -37.550781 C 129.097656 -38.265625 129.8125 -37.90625 129.8125 -37.191406 C 129.8125 -36.476562 129.097656 -35.761719 128.382812 -35.761719 Z M 131.957031 -38.265625 C 130.527344 -38.265625 130.527344 -40.410156 131.957031 -41.484375 C 132.671875 -41.839844 133.386719 -41.484375 133.386719 -40.410156 C 133.386719 -39.335938 132.671875 -38.265625 131.957031 -38.265625 Z M 149.125 -43.628906 C 148.050781 -44.34375 147.335938 -43.984375 147.691406 -42.914062 C 147.691406 -42.199219 146.976562 -41.484375 145.90625 -41.484375 C 141.972656 -41.125 141.613281 -40.765625 143.402344 -39.695312 C 145.546875 -38.265625 145.546875 -38.265625 140.183594 -37.90625 C 139.109375 -37.550781 137.679688 -36.476562 136.964844 -35.402344 C 135.535156 -33.972656 134.820312 -33.257812 134.105469 -34.332031 C 133.746094 -35.046875 136.25 -37.90625 140.183594 -40.410156 C 146.261719 -45.058594 150.910156 -46.847656 150.910156 -44.34375 C 150.910156 -43.628906 150.195312 -43.269531 149.125 -43.628906 Z M 151.269531 -46.847656 C 149.839844 -47.917969 149.839844 -48.277344 151.269531 -48.992188 C 151.984375 -49.707031 154.128906 -50.78125 155.917969 -52.210938 L 159.136719 -54 L 156.632812 -50.066406 C 154.128906 -45.417969 153.773438 -45.417969 151.269531 -46.847656 Z M 163.785156 -48.992188 C 160.210938 -46.132812 157.347656 -44.34375 157.347656 -45.417969 C 157.347656 -46.847656 165.929688 -52.570312 165.929688 -51.136719 C 165.929688 -50.78125 165.214844 -49.707031 163.785156 -48.992188 Z M 161.640625 -54.355469 C 160.566406 -55.429688 163.425781 -58.648438 164.859375 -57.574219 C 165.574219 -57.21875 165.929688 -56.503906 165.929688 -56.144531 C 165.929688 -54.714844 162.710938 -53.285156 161.640625 -54.355469 Z M 170.222656 -54.714844 C 169.148438 -53.285156 168.078125 -52.210938 167.359375 -52.210938 C 167.003906 -52.210938 168.078125 -53.285156 169.148438 -54.714844 C 170.222656 -56.144531 171.652344 -57.21875 172.011719 -57.21875 C 172.367188 -57.21875 171.652344 -56.144531 170.222656 -54.714844 Z M 170.578125 -70.449219 C 170.9375 -71.523438 172.011719 -72.238281 172.726562 -72.238281 C 173.082031 -72.238281 175.585938 -73.667969 177.730469 -75.457031 C 180.234375 -77.601562 183.097656 -79.746094 184.167969 -80.460938 C 185.597656 -81.175781 186.316406 -82.25 185.957031 -82.964844 C 185.242188 -83.679688 183.8125 -82.964844 182.738281 -81.894531 C 181.308594 -80.820312 179.878906 -79.746094 179.164062 -79.746094 C 178.445312 -79.746094 175.945312 -77.601562 173.441406 -75.457031 C 171.296875 -72.953125 168.792969 -70.808594 168.433594 -70.808594 C 167.71875 -70.808594 167.359375 -70.449219 167.359375 -69.734375 C 167.359375 -67.589844 169.863281 -68.304688 170.578125 -70.449219 Z M 170.578125 -70.449219 "/></g></g></g><g fill="#ffffff" fill-opacity="1"><g transform="translate(431.004202, 394.076908)"><g><path d="M 149.839844 -216.710938 C 149.125 -216.710938 148.765625 -217.425781 148.765625 -218.140625 C 148.765625 -219.214844 146.261719 -222.074219 143.042969 -224.578125 C 138.753906 -228.15625 136.605469 -228.871094 129.453125 -229.585938 L 120.871094 -230.300781 L 115.867188 -225.292969 L 111.214844 -220.644531 L 105.136719 -226.722656 C 101.5625 -229.941406 97.628906 -233.519531 95.480469 -234.234375 C 90.117188 -236.378906 73.667969 -234.949219 66.871094 -231.730469 C 63.65625 -230.300781 60.078125 -228.871094 59.363281 -228.871094 C 58.648438 -228.871094 54.714844 -227.082031 50.78125 -224.222656 C 43.984375 -219.929688 40.050781 -215.28125 21.097656 -189.53125 C 17.164062 -184.882812 13.945312 -180.234375 13.230469 -179.164062 C 12.515625 -178.445312 11.800781 -177.730469 11.800781 -177.375 C 11.800781 -176.660156 9.296875 -172.367188 6.4375 -167.359375 C 3.574219 -162.355469 0.714844 -157.347656 0 -156.273438 C -0.359375 -155.203125 -1.074219 -153.773438 -1.789062 -152.699219 C -12.875 -135.535156 -22.53125 -113.71875 -33.257812 -82.25 C -40.050781 -61.867188 -40.765625 -52.210938 -35.402344 -42.914062 C -30.753906 -35.402344 -23.960938 -28.609375 -17.523438 -25.03125 C -11.800781 -22.171875 -4.292969 -22.53125 -1.074219 -26.105469 C 0 -27.535156 1.789062 -28.609375 2.503906 -28.609375 C 3.574219 -28.609375 5.007812 -30.039062 6.078125 -31.828125 C 7.152344 -33.617188 9.65625 -36.832031 11.800781 -38.980469 C 13.945312 -40.765625 15.378906 -42.914062 15.019531 -43.628906 C 14.304688 -44.703125 17.878906 -52.925781 20.027344 -55.785156 C 20.742188 -56.503906 21.8125 -57.933594 22.886719 -59.003906 C 23.601562 -60.078125 24.675781 -62.582031 25.03125 -64.371094 C 26.105469 -67.589844 33.617188 -80.820312 35.761719 -82.25 C 36.117188 -82.609375 38.265625 -86.542969 40.765625 -90.476562 C 42.914062 -94.410156 46.132812 -99.414062 47.5625 -101.5625 C 49.351562 -104.0625 51.136719 -106.210938 51.851562 -106.925781 C 52.210938 -107.640625 54 -109.785156 55.070312 -111.933594 C 56.503906 -113.71875 59.003906 -117.296875 61.152344 -119.085938 C 65.085938 -123.375 77.957031 -142.328125 78.675781 -144.832031 C 78.675781 -146.261719 80.460938 -148.40625 82.609375 -150.554688 C 84.394531 -152.699219 87.613281 -157.347656 89.761719 -160.925781 C 94.050781 -167.71875 96.554688 -169.863281 94.765625 -164.859375 C 94.050781 -163.070312 92.621094 -158.0625 91.546875 -153.058594 C 90.476562 -148.40625 89.042969 -142.6875 88.328125 -140.539062 C 81.894531 -120.15625 72.953125 -62.9375 74.023438 -50.78125 C 74.742188 -45.058594 84.039062 -32.183594 87.613281 -32.183594 C 88.328125 -32.183594 89.761719 -31.113281 90.117188 -29.324219 C 91.546875 -26.105469 97.984375 -25.03125 103.707031 -27.179688 C 107.28125 -28.609375 108.714844 -32.183594 105.851562 -32.183594 C 104.421875 -32.183594 104.78125 -48.992188 106.566406 -59.722656 C 108.714844 -75.457031 110.144531 -84.394531 111.574219 -92.261719 C 114.433594 -106.566406 119.441406 -129.8125 121.585938 -136.964844 C 122.660156 -140.539062 123.734375 -144.832031 124.089844 -146.976562 C 124.449219 -149.125 126.234375 -156.273438 128.382812 -162.710938 C 130.886719 -169.148438 132.671875 -175.230469 132.671875 -175.945312 C 133.03125 -176.300781 134.105469 -178.804688 135.175781 -180.949219 C 135.890625 -182.738281 137.679688 -186.671875 138.394531 -189.175781 C 139.109375 -191.679688 141.613281 -195.96875 143.757812 -198.472656 C 149.839844 -205.984375 153.058594 -216.710938 149.839844 -216.710938 Z M 86.542969 -42.914062 C 85.46875 -44.34375 85.828125 -48.636719 86.898438 -48.636719 C 87.613281 -48.636719 87.972656 -47.203125 87.972656 -45.417969 C 87.972656 -41.839844 87.972656 -41.839844 86.542969 -42.914062 Z M 27.535156 -94.410156 C 26.820312 -93.335938 26.105469 -92.261719 25.390625 -92.261719 C 24.675781 -92.261719 24.675781 -92.976562 25.746094 -94.410156 C 26.464844 -95.480469 27.535156 -96.195312 27.535156 -96.195312 C 27.894531 -96.195312 27.894531 -95.480469 27.535156 -94.410156 Z M 24.316406 -99.773438 C 22.53125 -98.34375 20.742188 -96.195312 20.742188 -95.480469 C 20.742188 -94.410156 20.382812 -93.695312 19.667969 -93.335938 C 18.238281 -92.976562 9.296875 -81.535156 9.296875 -80.460938 C 9.296875 -80.105469 7.867188 -77.601562 6.078125 -75.457031 C 3.933594 -73.308594 1.429688 -70.089844 0.359375 -68.660156 C -2.503906 -64.371094 -2.503906 -66.15625 0.714844 -74.023438 C 2.144531 -77.601562 3.574219 -81.175781 3.574219 -81.894531 C 3.933594 -83.679688 5.722656 -87.257812 8.941406 -94.765625 C 10.726562 -98.699219 12.875 -104.0625 13.945312 -106.566406 C 15.019531 -109.429688 18.238281 -115.867188 21.097656 -121.230469 C 24.316406 -126.234375 27.535156 -133.03125 28.964844 -135.535156 C 30.039062 -138.394531 31.828125 -141.253906 32.542969 -142.328125 C 33.617188 -143.042969 35.761719 -146.976562 37.550781 -150.554688 C 43.984375 -162.710938 45.058594 -164.859375 47.203125 -167.003906 C 48.636719 -168.078125 49.351562 -170.222656 49.351562 -171.652344 C 49.351562 -172.726562 50.421875 -174.511719 51.496094 -174.871094 C 52.210938 -175.230469 53.285156 -175.945312 53.285156 -177.015625 C 53.285156 -177.730469 54.355469 -179.519531 55.785156 -180.949219 C 57.21875 -182.023438 58.289062 -183.8125 58.289062 -184.882812 C 58.289062 -185.597656 59.003906 -186.316406 60.078125 -186.316406 C 60.792969 -186.316406 62.582031 -188.816406 63.65625 -191.320312 C 65.085938 -194.183594 69.019531 -198.832031 72.59375 -202.050781 C 82.964844 -211.347656 84.753906 -213.136719 85.46875 -216.355469 C 86.542969 -221.003906 88.328125 -222.789062 91.546875 -222.789062 C 95.839844 -222.789062 98.34375 -219.214844 99.773438 -210.988281 C 101.203125 -202.765625 100.847656 -200.976562 96.554688 -196.328125 C 95.125 -194.539062 92.621094 -191.320312 91.546875 -189.175781 C 90.476562 -187.03125 88.6875 -185.242188 87.613281 -185.242188 C 86.542969 -185.242188 85.828125 -184.882812 86.183594 -184.527344 C 86.898438 -183.453125 76.171875 -167.359375 74.382812 -166.644531 C 73.667969 -166.289062 73.308594 -165.574219 73.308594 -164.5 C 73.308594 -163.785156 72.953125 -162.710938 72.238281 -162.355469 C 71.878906 -161.996094 69.734375 -159.136719 67.589844 -155.558594 C 65.085938 -152.339844 61.867188 -147.335938 59.722656 -144.832031 C 54.355469 -139.109375 54.355469 -139.109375 48.277344 -130.527344 C 45.058594 -126.59375 42.199219 -123.019531 41.484375 -122.660156 C 41.125 -122.660156 40.765625 -121.585938 40.765625 -120.871094 C 40.765625 -120.15625 39.335938 -118.011719 37.550781 -116.222656 C 35.761719 -114.792969 34.332031 -113.003906 34.332031 -112.289062 C 34.332031 -111.574219 33.257812 -109.785156 31.46875 -108.355469 C 29.679688 -106.566406 28.25 -104.78125 28.25 -104.0625 C 28.25 -103.347656 26.464844 -101.5625 24.316406 -99.773438 Z M 61.867188 -137.679688 C 62.582031 -137.679688 63.296875 -136.964844 63.296875 -136.25 C 63.296875 -135.535156 62.582031 -134.820312 61.867188 -134.820312 C 61.507812 -134.820312 60.792969 -135.535156 60.792969 -136.25 C 60.792969 -136.964844 61.507812 -137.679688 61.867188 -137.679688 Z M 60.792969 -141.972656 C 61.507812 -142.328125 62.222656 -141.972656 62.582031 -141.253906 C 62.9375 -140.539062 62.582031 -140.183594 61.507812 -140.183594 C 59.363281 -140.183594 59.003906 -140.898438 60.792969 -141.972656 Z M 57.21875 -134.105469 L 54.714844 -131.957031 L 51.496094 -129.453125 L 52.925781 -132.316406 C 54.714844 -135.175781 55.429688 -135.535156 57.21875 -134.105469 Z M 31.828125 -98.699219 C 31.113281 -98.699219 30.753906 -99.058594 30.753906 -99.773438 C 30.753906 -100.488281 31.113281 -101.203125 31.828125 -101.203125 C 32.542969 -101.203125 33.257812 -100.488281 33.257812 -99.773438 C 33.257812 -99.058594 32.542969 -98.699219 31.828125 -98.699219 Z M 36.832031 -103.707031 C 35.046875 -101.203125 34.6875 -101.203125 35.402344 -102.992188 C 36.117188 -105.496094 35.761719 -105.496094 33.972656 -103.707031 C 31.46875 -101.917969 31.46875 -101.917969 33.257812 -104.78125 C 34.332031 -106.210938 35.402344 -106.925781 35.402344 -106.210938 C 35.761719 -105.136719 36.476562 -105.136719 37.191406 -106.210938 C 37.550781 -107.28125 38.265625 -107.640625 38.621094 -107.28125 C 38.980469 -106.925781 38.265625 -105.496094 36.832031 -103.707031 Z M 48.277344 -118.011719 C 46.847656 -116.582031 44.703125 -114.433594 43.628906 -112.648438 C 41.125 -109.785156 36.832031 -108 36.832031 -109.785156 C 36.832031 -111.214844 40.765625 -114.433594 40.765625 -113.003906 C 40.765625 -112.289062 41.839844 -113.003906 43.269531 -114.792969 C 44.703125 -116.222656 45.417969 -118.367188 45.058594 -118.726562 C 44.703125 -119.441406 45.058594 -119.800781 46.132812 -119.800781 C 47.203125 -119.800781 48.992188 -121.230469 50.066406 -122.660156 C 53.285156 -127.308594 52.210938 -128.382812 48.636719 -124.449219 C 47.203125 -122.300781 45.773438 -121.230469 45.773438 -121.945312 C 45.773438 -123.734375 50.421875 -128.738281 51.851562 -128.382812 C 52.925781 -128.382812 54.355469 -129.453125 55.429688 -131.242188 L 57.21875 -134.105469 C 57.574219 -134.105469 57.574219 -133.746094 57.933594 -133.746094 C 59.363281 -132.316406 54.714844 -124.804688 48.277344 -118.011719 Z M 61.867188 -128.738281 C 60.4375 -126.59375 58.648438 -125.164062 57.933594 -125.164062 C 57.574219 -125.164062 58.289062 -126.953125 60.078125 -129.453125 C 62.222656 -131.957031 64.011719 -133.746094 64.371094 -133.386719 C 64.726562 -133.03125 63.296875 -130.886719 61.867188 -128.738281 Z M 64.726562 -146.261719 C 64.726562 -146.621094 65.441406 -148.050781 66.515625 -148.765625 C 68.660156 -150.554688 68.660156 -150.554688 67.230469 -148.050781 C 65.800781 -144.832031 64.726562 -144.117188 64.726562 -146.261719 Z M 66.871094 -135.535156 C 66.515625 -135.175781 65.800781 -135.535156 65.800781 -136.25 C 65.800781 -136.964844 66.515625 -137.679688 66.871094 -137.679688 C 67.945312 -137.679688 68.304688 -137.320312 68.304688 -136.964844 C 68.304688 -136.605469 67.945312 -136.25 66.871094 -135.535156 Z M 69.375 -139.46875 C 69.019531 -139.109375 68.304688 -139.109375 68.304688 -139.824219 C 68.304688 -140.539062 69.019531 -141.613281 69.375 -141.972656 C 70.089844 -142.328125 70.808594 -142.328125 70.808594 -141.253906 C 70.808594 -140.898438 70.089844 -139.824219 69.375 -139.46875 Z M 99.414062 -191.679688 C 100.128906 -191.679688 100.128906 -189.890625 99.773438 -187.746094 C 99.773438 -185.597656 99.058594 -184.167969 98.34375 -184.167969 C 97.628906 -184.167969 97.269531 -183.097656 97.269531 -182.023438 C 97.269531 -180.949219 96.554688 -180.234375 96.195312 -180.234375 C 95.480469 -180.234375 94.410156 -178.445312 93.695312 -176.300781 C 92.621094 -173.796875 91.546875 -172.726562 90.476562 -173.441406 C 89.761719 -173.796875 89.402344 -173.796875 89.761719 -173.082031 C 90.476562 -172.726562 90.117188 -171.652344 89.761719 -170.578125 C 89.042969 -169.863281 87.972656 -167.71875 87.613281 -166.289062 C 87.257812 -164.5 86.183594 -162.710938 85.46875 -161.996094 C 84.039062 -160.925781 83.324219 -160.210938 83.324219 -159.492188 C 83.324219 -158.0625 72.953125 -144.832031 72.238281 -145.546875 C 71.878906 -145.90625 72.59375 -146.976562 73.308594 -148.050781 C 74.382812 -149.480469 74.382812 -150.195312 73.308594 -150.195312 C 72.59375 -150.195312 71.523438 -148.765625 70.449219 -146.976562 C 69.734375 -145.191406 68.660156 -143.757812 67.945312 -143.757812 C 66.515625 -143.757812 67.589844 -145.191406 71.523438 -150.910156 C 74.742188 -155.203125 75.457031 -157.707031 73.308594 -157.707031 C 72.59375 -157.707031 72.238281 -158.0625 72.59375 -158.777344 C 73.308594 -159.851562 74.382812 -159.851562 75.457031 -159.492188 C 76.886719 -159.136719 76.886719 -159.492188 76.527344 -161.640625 L 75.8125 -164.5 L 77.242188 -161.640625 C 79.03125 -158.777344 80.105469 -158.0625 81.535156 -160.210938 C 81.894531 -160.925781 81.894531 -161.28125 81.175781 -161.28125 C 78.316406 -160.925781 78.316406 -161.640625 80.460938 -164.144531 C 82.609375 -166.644531 82.609375 -166.644531 80.460938 -165.929688 C 77.242188 -164.859375 77.601562 -165.574219 82.964844 -173.082031 C 86.542969 -178.089844 88.328125 -179.878906 90.117188 -179.519531 C 91.191406 -179.164062 92.261719 -179.519531 92.261719 -180.234375 C 92.261719 -180.949219 91.546875 -181.308594 90.832031 -180.59375 C 89.761719 -180.234375 89.402344 -180.59375 90.117188 -181.664062 C 90.117188 -182.382812 91.191406 -183.097656 92.261719 -183.097656 C 92.976562 -182.738281 93.335938 -183.097656 92.976562 -183.8125 C 92.261719 -185.242188 99.414062 -197.042969 100.488281 -195.96875 C 100.847656 -195.613281 100.488281 -194.539062 99.773438 -193.464844 C 98.699219 -192.394531 98.699219 -191.679688 99.414062 -191.679688 Z M 108.355469 -156.632812 C 107.640625 -155.203125 107.28125 -152.699219 106.925781 -151.269531 C 106.925781 -149.480469 106.210938 -145.90625 105.136719 -143.042969 C 103.707031 -138.394531 103.707031 -138.394531 103.707031 -141.613281 C 103.347656 -146.261719 107.28125 -158.777344 108.714844 -158.777344 C 109.429688 -158.777344 109.429688 -157.707031 108.355469 -156.632812 Z M 108.355469 -156.632812 "/></g></g></g><g fill="#ffffff" fill-opacity="1"><g transform="translate(591.928267, 394.076908)"><g><path d="M 188.460938 -205.625 C 188.101562 -207.769531 182.023438 -217.425781 177.375 -222.789062 C 175.230469 -225.292969 173.082031 -228.871094 172.367188 -231.015625 C 171.296875 -233.160156 170.578125 -234.234375 170.222656 -233.160156 C 169.507812 -232.089844 167.003906 -233.875 163.425781 -238.167969 C 158.777344 -243.175781 156.273438 -244.960938 150.910156 -246.394531 C 126.953125 -252.828125 84.753906 -241.742188 42.914062 -218.140625 C 39.335938 -215.996094 35.761719 -214.566406 35.046875 -214.566406 C 33.972656 -214.207031 32.542969 -213.851562 31.828125 -213.136719 C 28.609375 -210.632812 21.457031 -205.625 17.523438 -203.835938 C 15.378906 -202.765625 11.085938 -199.546875 7.867188 -196.328125 C 2.859375 -191.679688 1.789062 -190.25 0.714844 -184.527344 C 0.359375 -180.949219 0.359375 -178.089844 0.714844 -177.730469 C 1.074219 -177.375 2.503906 -174.871094 3.21875 -171.652344 C 7.511719 -160.210938 18.238281 -158.777344 18.953125 -169.507812 C 18.953125 -170.222656 19.667969 -171.296875 20.742188 -171.652344 C 27.894531 -174.871094 32.183594 -178.089844 37.90625 -182.382812 C 41.484375 -185.597656 45.773438 -188.101562 46.847656 -188.816406 C 48.636719 -189.175781 49.707031 -189.890625 49.707031 -190.605469 C 49.707031 -190.964844 54.355469 -193.824219 60.078125 -196.683594 C 66.15625 -199.546875 70.808594 -202.40625 71.164062 -202.765625 C 71.523438 -203.835938 90.832031 -213.136719 99.773438 -216.710938 C 103.707031 -218.140625 108 -219.929688 109.070312 -220.644531 C 114.792969 -222.789062 132.671875 -225.652344 143.757812 -225.652344 C 155.917969 -226.007812 164.859375 -224.222656 167.359375 -221.359375 C 169.148438 -218.855469 170.578125 -203.480469 169.148438 -200.261719 C 168.433594 -198.472656 167.003906 -194.898438 166.289062 -191.679688 C 163.785156 -183.8125 155.917969 -172.367188 143.042969 -158.421875 C 142.328125 -157.707031 138.394531 -153.058594 133.746094 -148.050781 C 129.453125 -143.042969 123.019531 -136.964844 119.441406 -134.460938 C 113.003906 -129.8125 101.203125 -118.367188 101.203125 -116.9375 C 101.203125 -116.582031 104.421875 -119.085938 108.355469 -123.019531 C 120.515625 -134.460938 124.804688 -136.605469 125.878906 -133.03125 C 126.234375 -132.316406 125.519531 -131.601562 123.734375 -131.601562 C 121.585938 -131.601562 119.441406 -127.667969 119.800781 -124.804688 C 119.800781 -124.449219 118.011719 -123.019531 115.867188 -121.945312 C 110.859375 -119.800781 106.210938 -115.507812 106.210938 -113.71875 C 106.210938 -111.933594 95.839844 -102.277344 86.542969 -95.480469 C 81.894531 -92.261719 77.242188 -87.613281 75.457031 -85.109375 C 73.667969 -82.609375 71.164062 -79.746094 69.734375 -79.390625 C 68.304688 -79.03125 67.230469 -77.957031 67.230469 -77.242188 C 67.230469 -76.171875 65.800781 -74.742188 64.011719 -74.023438 C 62.222656 -73.308594 60.4375 -71.878906 60.078125 -70.808594 C 59.722656 -69.734375 58.289062 -68.660156 56.859375 -68.660156 C 55.785156 -68.660156 54.714844 -68.304688 54.714844 -67.589844 C 54.714844 -67.230469 52.925781 -65.441406 50.78125 -64.371094 C 48.992188 -62.9375 47.203125 -61.152344 47.203125 -59.722656 C 47.203125 -58.648438 46.488281 -57.574219 45.773438 -57.574219 C 43.984375 -57.574219 24.675781 -46.132812 24.675781 -45.058594 C 24.675781 -44.703125 22.886719 -43.628906 20.742188 -42.914062 C 16.808594 -41.484375 15.734375 -42.554688 18.953125 -45.058594 C 20.027344 -45.773438 20.742188 -47.5625 20.382812 -49.351562 C 20.382812 -51.136719 22.886719 -53.640625 32.542969 -60.078125 C 39.335938 -64.726562 47.203125 -70.449219 50.066406 -72.59375 C 52.925781 -75.097656 57.933594 -79.03125 61.507812 -81.535156 C 64.726562 -83.679688 71.164062 -88.6875 74.742188 -92.621094 C 83.324219 -100.847656 87.613281 -104.421875 94.050781 -109.429688 C 96.554688 -111.214844 98.699219 -113.363281 98.699219 -114.078125 C 98.699219 -115.867188 85.828125 -106.210938 77.242188 -98.34375 C 73.308594 -94.765625 67.589844 -90.117188 64.011719 -87.613281 C 56.503906 -82.609375 48.277344 -76.171875 46.488281 -74.382812 C 45.058594 -72.59375 27.894531 -61.152344 26.464844 -61.152344 C 26.105469 -61.152344 23.601562 -59.722656 20.382812 -57.933594 C 17.523438 -56.144531 11.800781 -52.925781 7.867188 -51.136719 C 2.859375 -48.277344 0.714844 -46.847656 0.714844 -45.058594 C 0.714844 -43.628906 1.429688 -42.554688 1.789062 -42.554688 C 2.859375 -42.199219 3.933594 -42.199219 4.648438 -41.839844 C 5.363281 -41.839844 6.4375 -41.125 6.792969 -40.050781 C 7.152344 -38.980469 6.792969 -38.621094 5.722656 -38.980469 C 4.648438 -39.335938 3.21875 -37.90625 1.789062 -35.046875 C -0.359375 -30.753906 -0.359375 -30.398438 2.144531 -30.039062 C 3.574219 -30.039062 4.292969 -29.324219 3.574219 -27.894531 C 2.503906 -24.675781 8.226562 -13.945312 12.515625 -12.160156 C 16.808594 -10.011719 19.3125 -10.371094 24.675781 -12.875 C 28.25 -15.019531 52.570312 -21.097656 55.785156 -21.097656 C 57.21875 -21.097656 57.574219 -20.742188 56.144531 -20.027344 C 55.070312 -19.3125 62.222656 -19.3125 72.238281 -19.3125 C 82.25 -19.667969 90.832031 -19.3125 91.546875 -18.953125 C 92.976562 -17.523438 102.992188 -16.449219 120.515625 -15.378906 C 126.59375 -15.378906 134.460938 -14.660156 137.679688 -13.945312 C 147.691406 -12.875 155.203125 -14.660156 156.992188 -18.238281 C 158.777344 -21.8125 157.707031 -26.105469 154.84375 -28.609375 C 153.773438 -29.324219 153.058594 -30.753906 153.058594 -31.828125 C 153.414062 -32.542969 151.984375 -34.6875 149.839844 -36.832031 C 146.261719 -40.410156 144.472656 -40.765625 136.964844 -41.125 C 132.316406 -41.125 126.59375 -41.484375 123.734375 -41.839844 C 121.230469 -42.199219 107.640625 -42.914062 93.335938 -43.984375 C 79.03125 -44.703125 67.230469 -45.773438 67.230469 -46.132812 C 67.230469 -46.488281 68.304688 -47.917969 69.734375 -48.636719 C 71.164062 -49.707031 74.382812 -52.210938 76.527344 -54.355469 C 78.675781 -56.503906 82.609375 -59.722656 85.109375 -61.152344 C 87.613281 -62.9375 89.761719 -64.726562 89.761719 -65.441406 C 89.761719 -65.800781 90.832031 -66.15625 91.546875 -66.15625 C 92.621094 -66.15625 93.695312 -66.871094 93.695312 -67.589844 C 93.695312 -68.304688 94.410156 -68.660156 95.125 -68.660156 C 96.195312 -68.660156 97.984375 -70.089844 99.414062 -71.523438 C 104.78125 -77.601562 120.15625 -89.042969 122.660156 -89.042969 C 123.375 -89.042969 123.375 -89.761719 123.019531 -90.832031 C 122.660156 -91.90625 123.019531 -92.621094 123.734375 -92.261719 C 124.804688 -91.546875 148.765625 -114.433594 148.765625 -116.582031 C 149.125 -117.296875 149.125 -118.367188 149.125 -119.441406 C 149.480469 -120.15625 150.195312 -120.871094 151.625 -120.871094 C 152.699219 -120.871094 154.84375 -122.300781 156.273438 -123.734375 C 158.421875 -126.234375 158.777344 -126.953125 157.347656 -127.667969 C 156.273438 -128.382812 156.992188 -129.453125 160.210938 -130.527344 C 165.574219 -133.03125 172.011719 -140.183594 173.082031 -144.832031 C 173.441406 -146.976562 175.585938 -150.195312 177.730469 -152.339844 C 179.519531 -154.84375 181.308594 -157.347656 181.308594 -158.421875 C 181.308594 -159.492188 181.664062 -160.210938 182.382812 -160.210938 C 183.8125 -160.210938 187.386719 -168.792969 188.816406 -175.945312 C 189.890625 -181.664062 189.53125 -199.546875 188.460938 -205.625 Z M 157.707031 -237.453125 C 153.058594 -239.597656 142.328125 -241.742188 142.328125 -240.671875 C 142.328125 -238.882812 137.679688 -239.242188 136.964844 -240.671875 C 136.25 -241.386719 135.175781 -242.101562 133.746094 -242.101562 C 132.316406 -242.101562 131.242188 -241.386719 131.242188 -240.671875 C 131.242188 -239.957031 129.453125 -239.597656 127.667969 -239.597656 C 124.804688 -239.597656 124.449219 -239.597656 126.59375 -240.671875 C 128.738281 -241.386719 128.382812 -241.742188 124.804688 -241.386719 C 122.660156 -241.027344 119.085938 -240.671875 117.296875 -240.671875 C 114.433594 -240.3125 114.433594 -240.3125 116.582031 -239.242188 C 119.085938 -238.527344 119.085938 -238.527344 116.582031 -238.167969 C 115.148438 -238.167969 113.363281 -238.882812 113.363281 -239.597656 C 113.003906 -241.027344 112.289062 -241.027344 111.214844 -239.957031 C 110.144531 -238.882812 106.925781 -238.167969 104.421875 -237.453125 C 101.5625 -236.738281 97.628906 -236.023438 95.839844 -235.308594 C 94.410156 -234.59375 92.621094 -233.875 92.261719 -233.875 C 88.6875 -233.160156 81.175781 -229.941406 81.175781 -228.871094 C 81.175781 -228.511719 80.105469 -228.15625 79.03125 -228.511719 C 77.957031 -228.871094 75.457031 -228.15625 73.667969 -227.082031 C 69.734375 -224.222656 68.660156 -223.863281 68.660156 -225.652344 C 68.660156 -229.941406 102.277344 -243.175781 119.085938 -244.960938 C 131.957031 -246.394531 146.261719 -246.035156 150.554688 -243.53125 C 152.699219 -242.460938 155.558594 -241.027344 157.347656 -240.3125 C 160.566406 -238.527344 160.925781 -236.023438 157.707031 -237.453125 Z M 144.472656 -154.488281 C 145.546875 -155.558594 146.261719 -156.992188 146.261719 -157.707031 C 146.261719 -158.421875 148.40625 -161.28125 151.269531 -164.5 C 155.558594 -168.792969 156.273438 -169.148438 156.273438 -167.003906 C 156.273438 -165.214844 155.203125 -163.070312 154.128906 -161.996094 C 153.058594 -160.566406 150.195312 -157.347656 148.40625 -154.84375 C 144.832031 -150.554688 142.328125 -149.125 142.328125 -151.625 C 142.328125 -151.984375 143.402344 -153.773438 144.472656 -154.488281 Z M 149.839844 -149.125 C 149.839844 -148.40625 149.480469 -148.050781 148.765625 -148.050781 C 148.050781 -148.050781 147.335938 -148.40625 147.335938 -149.125 C 147.335938 -149.839844 148.050781 -150.554688 148.765625 -150.554688 C 149.480469 -150.554688 149.839844 -149.839844 149.839844 -149.125 Z M 138.039062 -107.640625 C 137.679688 -106.925781 136.605469 -106.566406 136.25 -106.566406 C 134.105469 -106.566406 134.820312 -107.28125 136.964844 -108 C 138.039062 -108.714844 138.394531 -108.355469 138.039062 -107.640625 Z M 145.90625 -115.148438 C 144.832031 -113.363281 143.402344 -111.933594 142.6875 -111.933594 C 140.183594 -110.859375 143.757812 -116.222656 146.261719 -117.296875 C 147.335938 -117.652344 147.335938 -117.296875 145.90625 -115.148438 Z M 148.40625 -125.164062 C 143.757812 -120.871094 139.824219 -116.582031 139.824219 -116.222656 C 139.824219 -114.078125 120.15625 -95.125 118.011719 -95.125 C 116.9375 -95.125 116.222656 -94.765625 116.222656 -94.050781 C 116.222656 -93.335938 115.507812 -92.621094 114.433594 -92.621094 C 113.363281 -92.621094 112.289062 -91.90625 111.933594 -90.832031 C 111.214844 -89.042969 106.210938 -85.828125 106.210938 -87.257812 C 106.210938 -87.972656 108.714844 -90.476562 111.574219 -93.335938 C 114.792969 -96.195312 117.296875 -98.699219 117.296875 -98.34375 C 117.296875 -97.269531 122.660156 -101.5625 126.59375 -105.851562 C 131.957031 -111.214844 153.058594 -134.105469 156.273438 -137.679688 C 157.707031 -139.46875 159.136719 -140.539062 159.492188 -140.183594 C 160.925781 -138.753906 156.632812 -133.03125 148.40625 -125.164062 Z M 147.335938 -142.328125 C 146.621094 -142.6875 146.621094 -141.972656 146.976562 -140.898438 C 147.335938 -139.824219 146.976562 -139.109375 146.261719 -139.109375 C 144.117188 -139.109375 138.753906 -134.460938 139.46875 -133.746094 C 140.183594 -133.03125 139.824219 -133.03125 138.753906 -133.03125 C 138.039062 -133.03125 136.964844 -131.601562 136.605469 -130.527344 C 135.175781 -127.308594 125.878906 -117.296875 118.011719 -110.859375 C 114.792969 -108.355469 108 -102.277344 102.992188 -97.269531 C 98.34375 -92.621094 94.050781 -89.042969 93.335938 -89.042969 C 92.261719 -89.042969 84.394531 -81.535156 73.308594 -71.164062 C 72.238281 -70.089844 65.441406 -65.085938 58.289062 -60.078125 C 51.136719 -55.070312 44.703125 -50.066406 44.34375 -49.351562 C 43.628906 -48.277344 41.125 -46.847656 38.621094 -45.773438 C 33.972656 -43.628906 28.25 -43.269531 28.25 -45.058594 C 28.25 -45.773438 30.039062 -46.488281 32.183594 -46.847656 C 34.332031 -47.203125 35.761719 -48.277344 35.761719 -48.992188 C 35.761719 -49.707031 36.476562 -50.066406 37.191406 -50.066406 C 37.90625 -50.066406 42.554688 -53.285156 47.917969 -57.574219 C 52.925781 -61.507812 59.722656 -67.230469 62.9375 -69.734375 C 66.515625 -72.238281 71.523438 -76.886719 74.742188 -80.105469 C 83.679688 -89.042969 90.832031 -95.125 91.546875 -94.410156 C 92.621094 -93.335938 108.714844 -109.429688 108 -110.859375 C 107.640625 -111.933594 108 -112.648438 108.714844 -112.648438 C 112.289062 -112.648438 140.898438 -140.183594 139.109375 -141.613281 C 138.394531 -141.972656 139.109375 -143.402344 140.539062 -144.472656 C 142.6875 -146.976562 143.042969 -146.976562 141.972656 -144.832031 C 141.253906 -142.328125 141.253906 -142.328125 143.757812 -144.472656 C 144.832031 -145.90625 146.621094 -146.261719 147.335938 -145.90625 C 149.125 -145.191406 156.273438 -153.058594 158.421875 -158.0625 C 159.851562 -161.640625 162.710938 -163.070312 162.710938 -159.851562 C 162.710938 -156.632812 149.480469 -140.898438 147.335938 -142.328125 Z M 171.296875 -147.335938 C 170.578125 -146.976562 170.222656 -146.976562 170.222656 -147.691406 C 170.222656 -148.40625 170.578125 -149.125 171.296875 -149.839844 C 172.011719 -150.195312 172.367188 -149.839844 172.367188 -149.125 C 172.367188 -148.40625 172.011719 -147.691406 171.296875 -147.335938 Z M 171.296875 -147.335938 "/></g></g></g><g fill="#ffffff" fill-opacity="1"><g transform="translate(792.54692, 394.076908)"><g><path d="M 149.839844 -216.710938 C 149.125 -216.710938 148.765625 -217.425781 148.765625 -218.140625 C 148.765625 -219.214844 146.261719 -222.074219 143.042969 -224.578125 C 138.753906 -228.15625 136.605469 -228.871094 129.453125 -229.585938 L 120.871094 -230.300781 L 115.867188 -225.292969 L 111.214844 -220.644531 L 105.136719 -226.722656 C 101.5625 -229.941406 97.628906 -233.519531 95.480469 -234.234375 C 90.117188 -236.378906 73.667969 -234.949219 66.871094 -231.730469 C 63.65625 -230.300781 60.078125 -228.871094 59.363281 -228.871094 C 58.648438 -228.871094 54.714844 -227.082031 50.78125 -224.222656 C 43.984375 -219.929688 40.050781 -215.28125 21.097656 -189.53125 C 17.164062 -184.882812 13.945312 -180.234375 13.230469 -179.164062 C 12.515625 -178.445312 11.800781 -177.730469 11.800781 -177.375 C 11.800781 -176.660156 9.296875 -172.367188 6.4375 -167.359375 C 3.574219 -162.355469 0.714844 -157.347656 0 -156.273438 C -0.359375 -155.203125 -1.074219 -153.773438 -1.789062 -152.699219 C -12.875 -135.535156 -22.53125 -113.71875 -33.257812 -82.25 C -40.050781 -61.867188 -40.765625 -52.210938 -35.402344 -42.914062 C -30.753906 -35.402344 -23.960938 -28.609375 -17.523438 -25.03125 C -11.800781 -22.171875 -4.292969 -22.53125 -1.074219 -26.105469 C 0 -27.535156 1.789062 -28.609375 2.503906 -28.609375 C 3.574219 -28.609375 5.007812 -30.039062 6.078125 -31.828125 C 7.152344 -33.617188 9.65625 -36.832031 11.800781 -38.980469 C 13.945312 -40.765625 15.378906 -42.914062 15.019531 -43.628906 C 14.304688 -44.703125 17.878906 -52.925781 20.027344 -55.785156 C 20.742188 -56.503906 21.8125 -57.933594 22.886719 -59.003906 C 23.601562 -60.078125 24.675781 -62.582031 25.03125 -64.371094 C 26.105469 -67.589844 33.617188 -80.820312 35.761719 -82.25 C 36.117188 -82.609375 38.265625 -86.542969 40.765625 -90.476562 C 42.914062 -94.410156 46.132812 -99.414062 47.5625 -101.5625 C 49.351562 -104.0625 51.136719 -106.210938 51.851562 -106.925781 C 52.210938 -107.640625 54 -109.785156 55.070312 -111.933594 C 56.503906 -113.71875 59.003906 -117.296875 61.152344 -119.085938 C 65.085938 -123.375 77.957031 -142.328125 78.675781 -144.832031 C 78.675781 -146.261719 80.460938 -148.40625 82.609375 -150.554688 C 84.394531 -152.699219 87.613281 -157.347656 89.761719 -160.925781 C 94.050781 -167.71875 96.554688 -169.863281 94.765625 -164.859375 C 94.050781 -163.070312 92.621094 -158.0625 91.546875 -153.058594 C 90.476562 -148.40625 89.042969 -142.6875 88.328125 -140.539062 C 81.894531 -120.15625 72.953125 -62.9375 74.023438 -50.78125 C 74.742188 -45.058594 84.039062 -32.183594 87.613281 -32.183594 C 88.328125 -32.183594 89.761719 -31.113281 90.117188 -29.324219 C 91.546875 -26.105469 97.984375 -25.03125 103.707031 -27.179688 C 107.28125 -28.609375 108.714844 -32.183594 105.851562 -32.183594 C 104.421875 -32.183594 104.78125 -48.992188 106.566406 -59.722656 C 108.714844 -75.457031 110.144531 -84.394531 111.574219 -92.261719 C 114.433594 -106.566406 119.441406 -129.8125 121.585938 -136.964844 C 122.660156 -140.539062 123.734375 -144.832031 124.089844 -146.976562 C 124.449219 -149.125 126.234375 -156.273438 128.382812 -162.710938 C 130.886719 -169.148438 132.671875 -175.230469 132.671875 -175.945312 C 133.03125 -176.300781 134.105469 -178.804688 135.175781 -180.949219 C 135.890625 -182.738281 137.679688 -186.671875 138.394531 -189.175781 C 139.109375 -191.679688 141.613281 -195.96875 143.757812 -198.472656 C 149.839844 -205.984375 153.058594 -216.710938 149.839844 -216.710938 Z M 86.542969 -42.914062 C 85.46875 -44.34375 85.828125 -48.636719 86.898438 -48.636719 C 87.613281 -48.636719 87.972656 -47.203125 87.972656 -45.417969 C 87.972656 -41.839844 87.972656 -41.839844 86.542969 -42.914062 Z M 27.535156 -94.410156 C 26.820312 -93.335938 26.105469 -92.261719 25.390625 -92.261719 C 24.675781 -92.261719 24.675781 -92.976562 25.746094 -94.410156 C 26.464844 -95.480469 27.535156 -96.195312 27.535156 -96.195312 C 27.894531 -96.195312 27.894531 -95.480469 27.535156 -94.410156 Z M 24.316406 -99.773438 C 22.53125 -98.34375 20.742188 -96.195312 20.742188 -95.480469 C 20.742188 -94.410156 20.382812 -93.695312 19.667969 -93.335938 C 18.238281 -92.976562 9.296875 -81.535156 9.296875 -80.460938 C 9.296875 -80.105469 7.867188 -77.601562 6.078125 -75.457031 C 3.933594 -73.308594 1.429688 -70.089844 0.359375 -68.660156 C -2.503906 -64.371094 -2.503906 -66.15625 0.714844 -74.023438 C 2.144531 -77.601562 3.574219 -81.175781 3.574219 -81.894531 C 3.933594 -83.679688 5.722656 -87.257812 8.941406 -94.765625 C 10.726562 -98.699219 12.875 -104.0625 13.945312 -106.566406 C 15.019531 -109.429688 18.238281 -115.867188 21.097656 -121.230469 C 24.316406 -126.234375 27.535156 -133.03125 28.964844 -135.535156 C 30.039062 -138.394531 31.828125 -141.253906 32.542969 -142.328125 C 33.617188 -143.042969 35.761719 -146.976562 37.550781 -150.554688 C 43.984375 -162.710938 45.058594 -164.859375 47.203125 -167.003906 C 48.636719 -168.078125 49.351562 -170.222656 49.351562 -171.652344 C 49.351562 -172.726562 50.421875 -174.511719 51.496094 -174.871094 C 52.210938 -175.230469 53.285156 -175.945312 53.285156 -177.015625 C 53.285156 -177.730469 54.355469 -179.519531 55.785156 -180.949219 C 57.21875 -182.023438 58.289062 -183.8125 58.289062 -184.882812 C 58.289062 -185.597656 59.003906 -186.316406 60.078125 -186.316406 C 60.792969 -186.316406 62.582031 -188.816406 63.65625 -191.320312 C 65.085938 -194.183594 69.019531 -198.832031 72.59375 -202.050781 C 82.964844 -211.347656 84.753906 -213.136719 85.46875 -216.355469 C 86.542969 -221.003906 88.328125 -222.789062 91.546875 -222.789062 C 95.839844 -222.789062 98.34375 -219.214844 99.773438 -210.988281 C 101.203125 -202.765625 100.847656 -200.976562 96.554688 -196.328125 C 95.125 -194.539062 92.621094 -191.320312 91.546875 -189.175781 C 90.476562 -187.03125 88.6875 -185.242188 87.613281 -185.242188 C 86.542969 -185.242188 85.828125 -184.882812 86.183594 -184.527344 C 86.898438 -183.453125 76.171875 -167.359375 74.382812 -166.644531 C 73.667969 -166.289062 73.308594 -165.574219 73.308594 -164.5 C 73.308594 -163.785156 72.953125 -162.710938 72.238281 -162.355469 C 71.878906 -161.996094 69.734375 -159.136719 67.589844 -155.558594 C 65.085938 -152.339844 61.867188 -147.335938 59.722656 -144.832031 C 54.355469 -139.109375 54.355469 -139.109375 48.277344 -130.527344 C 45.058594 -126.59375 42.199219 -123.019531 41.484375 -122.660156 C 41.125 -122.660156 40.765625 -121.585938 40.765625 -120.871094 C 40.765625 -120.15625 39.335938 -118.011719 37.550781 -116.222656 C 35.761719 -114.792969 34.332031 -113.003906 34.332031 -112.289062 C 34.332031 -111.574219 33.257812 -109.785156 31.46875 -108.355469 C 29.679688 -106.566406 28.25 -104.78125 28.25 -104.0625 C 28.25 -103.347656 26.464844 -101.5625 24.316406 -99.773438 Z M 61.867188 -137.679688 C 62.582031 -137.679688 63.296875 -136.964844 63.296875 -136.25 C 63.296875 -135.535156 62.582031 -134.820312 61.867188 -134.820312 C 61.507812 -134.820312 60.792969 -135.535156 60.792969 -136.25 C 60.792969 -136.964844 61.507812 -137.679688 61.867188 -137.679688 Z M 60.792969 -141.972656 C 61.507812 -142.328125 62.222656 -141.972656 62.582031 -141.253906 C 62.9375 -140.539062 62.582031 -140.183594 61.507812 -140.183594 C 59.363281 -140.183594 59.003906 -140.898438 60.792969 -141.972656 Z M 57.21875 -134.105469 L 54.714844 -131.957031 L 51.496094 -129.453125 L 52.925781 -132.316406 C 54.714844 -135.175781 55.429688 -135.535156 57.21875 -134.105469 Z M 31.828125 -98.699219 C 31.113281 -98.699219 30.753906 -99.058594 30.753906 -99.773438 C 30.753906 -100.488281 31.113281 -101.203125 31.828125 -101.203125 C 32.542969 -101.203125 33.257812 -100.488281 33.257812 -99.773438 C 33.257812 -99.058594 32.542969 -98.699219 31.828125 -98.699219 Z M 36.832031 -103.707031 C 35.046875 -101.203125 34.6875 -101.203125 35.402344 -102.992188 C 36.117188 -105.496094 35.761719 -105.496094 33.972656 -103.707031 C 31.46875 -101.917969 31.46875 -101.917969 33.257812 -104.78125 C 34.332031 -106.210938 35.402344 -106.925781 35.402344 -106.210938 C 35.761719 -105.136719 36.476562 -105.136719 37.191406 -106.210938 C 37.550781 -107.28125 38.265625 -107.640625 38.621094 -107.28125 C 38.980469 -106.925781 38.265625 -105.496094 36.832031 -103.707031 Z M 48.277344 -118.011719 C 46.847656 -116.582031 44.703125 -114.433594 43.628906 -112.648438 C 41.125 -109.785156 36.832031 -108 36.832031 -109.785156 C 36.832031 -111.214844 40.765625 -114.433594 40.765625 -113.003906 C 40.765625 -112.289062 41.839844 -113.003906 43.269531 -114.792969 C 44.703125 -116.222656 45.417969 -118.367188 45.058594 -118.726562 C 44.703125 -119.441406 45.058594 -119.800781 46.132812 -119.800781 C 47.203125 -119.800781 48.992188 -121.230469 50.066406 -122.660156 C 53.285156 -127.308594 52.210938 -128.382812 48.636719 -124.449219 C 47.203125 -122.300781 45.773438 -121.230469 45.773438 -121.945312 C 45.773438 -123.734375 50.421875 -128.738281 51.851562 -128.382812 C 52.925781 -128.382812 54.355469 -129.453125 55.429688 -131.242188 L 57.21875 -134.105469 C 57.574219 -134.105469 57.574219 -133.746094 57.933594 -133.746094 C 59.363281 -132.316406 54.714844 -124.804688 48.277344 -118.011719 Z M 61.867188 -128.738281 C 60.4375 -126.59375 58.648438 -125.164062 57.933594 -125.164062 C 57.574219 -125.164062 58.289062 -126.953125 60.078125 -129.453125 C 62.222656 -131.957031 64.011719 -133.746094 64.371094 -133.386719 C 64.726562 -133.03125 63.296875 -130.886719 61.867188 -128.738281 Z M 64.726562 -146.261719 C 64.726562 -146.621094 65.441406 -148.050781 66.515625 -148.765625 C 68.660156 -150.554688 68.660156 -150.554688 67.230469 -148.050781 C 65.800781 -144.832031 64.726562 -144.117188 64.726562 -146.261719 Z M 66.871094 -135.535156 C 66.515625 -135.175781 65.800781 -135.535156 65.800781 -136.25 C 65.800781 -136.964844 66.515625 -137.679688 66.871094 -137.679688 C 67.945312 -137.679688 68.304688 -137.320312 68.304688 -136.964844 C 68.304688 -136.605469 67.945312 -136.25 66.871094 -135.535156 Z M 69.375 -139.46875 C 69.019531 -139.109375 68.304688 -139.109375 68.304688 -139.824219 C 68.304688 -140.539062 69.019531 -141.613281 69.375 -141.972656 C 70.089844 -142.328125 70.808594 -142.328125 70.808594 -141.253906 C 70.808594 -140.898438 70.089844 -139.824219 69.375 -139.46875 Z M 99.414062 -191.679688 C 100.128906 -191.679688 100.128906 -189.890625 99.773438 -187.746094 C 99.773438 -185.597656 99.058594 -184.167969 98.34375 -184.167969 C 97.628906 -184.167969 97.269531 -183.097656 97.269531 -182.023438 C 97.269531 -180.949219 96.554688 -180.234375 96.195312 -180.234375 C 95.480469 -180.234375 94.410156 -178.445312 93.695312 -176.300781 C 92.621094 -173.796875 91.546875 -172.726562 90.476562 -173.441406 C 89.761719 -173.796875 89.402344 -173.796875 89.761719 -173.082031 C 90.476562 -172.726562 90.117188 -171.652344 89.761719 -170.578125 C 89.042969 -169.863281 87.972656 -167.71875 87.613281 -166.289062 C 87.257812 -164.5 86.183594 -162.710938 85.46875 -161.996094 C 84.039062 -160.925781 83.324219 -160.210938 83.324219 -159.492188 C 83.324219 -158.0625 72.953125 -144.832031 72.238281 -145.546875 C 71.878906 -145.90625 72.59375 -146.976562 73.308594 -148.050781 C 74.382812 -149.480469 74.382812 -150.195312 73.308594 -150.195312 C 72.59375 -150.195312 71.523438 -148.765625 70.449219 -146.976562 C 69.734375 -145.191406 68.660156 -143.757812 67.945312 -143.757812 C 66.515625 -143.757812 67.589844 -145.191406 71.523438 -150.910156 C 74.742188 -155.203125 75.457031 -157.707031 73.308594 -157.707031 C 72.59375 -157.707031 72.238281 -158.0625 72.59375 -158.777344 C 73.308594 -159.851562 74.382812 -159.851562 75.457031 -159.492188 C 76.886719 -159.136719 76.886719 -159.492188 76.527344 -161.640625 L 75.8125 -164.5 L 77.242188 -161.640625 C 79.03125 -158.777344 80.105469 -158.0625 81.535156 -160.210938 C 81.894531 -160.925781 81.894531 -161.28125 81.175781 -161.28125 C 78.316406 -160.925781 78.316406 -161.640625 80.460938 -164.144531 C 82.609375 -166.644531 82.609375 -166.644531 80.460938 -165.929688 C 77.242188 -164.859375 77.601562 -165.574219 82.964844 -173.082031 C 86.542969 -178.089844 88.328125 -179.878906 90.117188 -179.519531 C 91.191406 -179.164062 92.261719 -179.519531 92.261719 -180.234375 C 92.261719 -180.949219 91.546875 -181.308594 90.832031 -180.59375 C 89.761719 -180.234375 89.402344 -180.59375 90.117188 -181.664062 C 90.117188 -182.382812 91.191406 -183.097656 92.261719 -183.097656 C 92.976562 -182.738281 93.335938 -183.097656 92.976562 -183.8125 C 92.261719 -185.242188 99.414062 -197.042969 100.488281 -195.96875 C 100.847656 -195.613281 100.488281 -194.539062 99.773438 -193.464844 C 98.699219 -192.394531 98.699219 -191.679688 99.414062 -191.679688 Z M 108.355469 -156.632812 C 107.640625 -155.203125 107.28125 -152.699219 106.925781 -151.269531 C 106.925781 -149.480469 106.210938 -145.90625 105.136719 -143.042969 C 103.707031 -138.394531 103.707031 -138.394531 103.707031 -141.613281 C 103.347656 -146.261719 107.28125 -158.777344 108.714844 -158.777344 C 109.429688 -158.777344 109.429688 -157.707031 108.355469 -156.632812 Z M 108.355469 -156.632812 "/></g></g></g><g fill="#ffffff" fill-opacity="1"><g transform="translate(953.471, 394.076908)"><g><path d="M -5.007812 -133.386719 C -2.503906 -138.394531 -2.503906 -138.753906 -3.933594 -138.753906 C -5.007812 -138.753906 -7.867188 -131.601562 -7.867188 -129.453125 C -7.867188 -127.308594 -6.4375 -129.097656 -5.007812 -133.386719 Z M 159.492188 -185.242188 C 153.058594 -185.242188 133.746094 -192.75 133.746094 -195.253906 C 133.746094 -195.613281 130.527344 -197.402344 126.59375 -199.546875 C 122.660156 -201.335938 117.652344 -203.835938 115.867188 -204.550781 C 111.933594 -207.054688 95.480469 -207.054688 96.914062 -204.910156 C 97.628906 -204.195312 96.914062 -203.835938 95.839844 -204.195312 C 90.832031 -206.339844 79.390625 -198.117188 69.019531 -185.597656 C 65.085938 -180.949219 61.152344 -175.945312 60.4375 -174.871094 C 59.363281 -173.441406 58.289062 -172.011719 58.289062 -171.296875 C 58.289062 -170.578125 57.933594 -170.222656 57.574219 -170.222656 C 56.859375 -170.222656 56.144531 -169.148438 55.429688 -167.71875 C 54.714844 -166.289062 52.925781 -163.425781 51.851562 -161.640625 C 50.066406 -158.0625 50.066406 -157.707031 51.496094 -157.707031 C 52.570312 -157.707031 53.640625 -158.421875 53.640625 -159.136719 C 53.640625 -159.851562 55.785156 -163.425781 58.289062 -167.003906 C 61.152344 -170.578125 62.9375 -173.796875 62.582031 -174.15625 C 62.222656 -174.871094 62.582031 -175.230469 62.9375 -175.230469 C 63.65625 -175.230469 66.15625 -177.730469 68.660156 -180.949219 C 70.808594 -184.167969 74.023438 -188.101562 75.457031 -189.53125 C 76.886719 -190.605469 77.601562 -192.394531 77.601562 -193.109375 C 77.242188 -193.824219 77.601562 -194.183594 77.957031 -193.464844 C 78.316406 -193.109375 79.746094 -193.824219 80.460938 -194.898438 C 81.894531 -197.042969 82.25 -197.042969 81.894531 -194.898438 C 81.535156 -193.824219 78.316406 -189.175781 74.742188 -185.242188 C 70.808594 -180.949219 67.230469 -176.300781 66.871094 -174.871094 C 66.15625 -173.796875 65.085938 -172.726562 64.371094 -172.726562 C 64.011719 -172.726562 63.65625 -172.011719 63.65625 -171.296875 C 63.65625 -170.578125 62.222656 -168.078125 60.792969 -165.929688 C 59.003906 -163.785156 57.21875 -160.925781 56.503906 -159.851562 C 55.785156 -158.777344 54.355469 -156.632812 53.285156 -154.84375 C 52.210938 -153.058594 47.5625 -145.546875 43.269531 -137.679688 C 38.980469 -130.167969 35.402344 -124.089844 35.046875 -124.089844 C 34.332031 -124.804688 36.117188 -128.382812 45.773438 -147.335938 C 50.78125 -156.632812 50.066406 -159.136719 45.417969 -150.554688 C 43.269531 -147.335938 41.125 -143.757812 40.050781 -142.328125 C 38.621094 -140.539062 32.183594 -128.738281 17.523438 -99.773438 C 9.65625 -84.394531 3.933594 -75.8125 7.152344 -84.394531 C 9.65625 -90.476562 10.726562 -96.195312 9.296875 -96.914062 C 8.582031 -97.269531 8.582031 -98.34375 9.65625 -99.414062 C 10.371094 -100.128906 11.085938 -102.632812 11.445312 -104.421875 C 11.800781 -106.210938 12.875 -109.785156 13.945312 -112.289062 C 16.09375 -117.652344 16.09375 -118.011719 13.945312 -116.222656 C 12.875 -115.507812 12.160156 -115.148438 12.160156 -115.867188 C 12.160156 -116.582031 12.875 -118.011719 13.945312 -118.726562 C 16.449219 -120.871094 21.097656 -130.886719 20.382812 -132.671875 C 20.382812 -133.386719 18.59375 -131.601562 16.808594 -128.738281 C 15.019531 -125.519531 13.230469 -124.089844 13.230469 -125.164062 C 13.230469 -126.234375 14.304688 -128.023438 15.378906 -129.097656 C 16.09375 -130.167969 17.164062 -131.601562 17.164062 -132.316406 C 17.164062 -133.03125 18.238281 -134.460938 19.667969 -135.535156 C 21.457031 -136.605469 22.171875 -137.679688 21.8125 -138.394531 C 21.457031 -138.753906 20.027344 -138.394531 18.953125 -137.679688 C 17.523438 -136.25 17.523438 -136.605469 17.878906 -138.753906 C 18.238281 -140.183594 20.027344 -142.328125 21.8125 -143.757812 C 24.675781 -145.90625 25.746094 -148.40625 23.246094 -146.976562 C 22.171875 -146.261719 21.8125 -146.621094 22.53125 -148.050781 C 22.886719 -149.125 23.246094 -150.554688 23.246094 -150.910156 C 23.246094 -151.269531 24.316406 -151.269531 25.390625 -151.269531 C 26.464844 -151.269531 27.179688 -151.984375 26.820312 -153.058594 C 26.105469 -154.128906 27.179688 -155.203125 28.609375 -155.558594 C 30.039062 -155.917969 31.113281 -156.632812 30.398438 -156.992188 C 30.039062 -157.707031 30.398438 -158.777344 31.113281 -159.492188 C 32.183594 -160.925781 32.183594 -161.28125 31.113281 -161.28125 C 29.324219 -161.28125 30.398438 -164.5 34.332031 -170.222656 C 36.117188 -172.726562 37.191406 -175.585938 36.832031 -176.300781 C 36.117188 -176.660156 37.191406 -178.445312 38.621094 -179.519531 C 39.695312 -180.59375 40.765625 -182.738281 40.765625 -183.453125 C 40.765625 -184.527344 41.484375 -185.242188 41.839844 -185.242188 C 42.554688 -185.242188 43.984375 -187.386719 45.417969 -190.605469 C 46.488281 -193.464844 48.277344 -196.683594 49.351562 -198.117188 C 50.78125 -199.546875 50.78125 -200.261719 50.066406 -200.261719 C 48.992188 -200.261719 48.992188 -200.976562 50.066406 -203.121094 C 50.78125 -204.550781 51.851562 -206.339844 52.210938 -206.699219 C 52.570312 -206.699219 54.355469 -209.558594 55.785156 -212.777344 C 57.574219 -215.636719 59.363281 -218.855469 60.078125 -219.574219 C 60.792969 -220.289062 63.296875 -223.863281 65.800781 -227.082031 C 68.304688 -230.65625 71.878906 -234.949219 73.667969 -236.738281 C 84.039062 -247.824219 85.828125 -250.683594 81.535156 -252.472656 C 80.820312 -252.828125 79.746094 -253.902344 79.746094 -254.976562 C 79.746094 -256.046875 78.316406 -256.765625 76.527344 -256.765625 C 74.742188 -256.765625 73.308594 -257.480469 72.59375 -258.550781 C 71.164062 -262.484375 58.648438 -261.054688 55.070312 -256.046875 C 53.640625 -254.617188 51.851562 -252.828125 50.78125 -252.828125 C 46.847656 -251.398438 23.246094 -214.207031 25.746094 -212.777344 C 26.820312 -212.0625 26.105469 -209.917969 23.246094 -204.550781 C 21.457031 -200.261719 18.59375 -194.898438 17.523438 -192.035156 C 16.09375 -189.175781 14.304688 -185.597656 13.230469 -183.8125 C 8.941406 -175.945312 8.582031 -173.796875 11.445312 -176.300781 C 12.875 -177.730469 13.230469 -177.375 12.875 -175.585938 C 12.515625 -174.15625 11.445312 -171.296875 10.371094 -168.433594 C 9.296875 -165.574219 8.226562 -163.070312 8.226562 -162.710938 C 8.226562 -161.996094 7.511719 -160.925781 6.4375 -160.210938 C 5.007812 -158.777344 5.007812 -159.136719 5.363281 -161.640625 C 5.722656 -163.070312 5.722656 -164.144531 5.007812 -163.425781 C 2.859375 -161.996094 2.144531 -156.273438 4.292969 -156.273438 C 6.078125 -156.273438 6.078125 -155.917969 3.933594 -151.269531 C 2.859375 -149.125 0.714844 -143.757812 -0.714844 -139.109375 C -2.144531 -134.460938 -3.933594 -128.738281 -5.007812 -126.953125 C -5.722656 -124.804688 -7.511719 -119.441406 -8.582031 -114.792969 C -10.726562 -106.566406 -11.085938 -105.496094 -13.230469 -96.554688 C -13.945312 -94.050781 -15.019531 -89.402344 -15.734375 -86.542969 C -16.09375 -84.039062 -17.164062 -79.03125 -17.878906 -76.171875 C -21.457031 -59.003906 -23.246094 -52.925781 -25.03125 -51.496094 C -26.820312 -50.066406 -27.894531 -45.058594 -28.609375 -36.117188 C -28.964844 -30.398438 -30.753906 -29.324219 -32.183594 -33.972656 C -32.898438 -37.550781 -32.898438 -37.191406 -32.898438 -32.542969 C -32.898438 -28.964844 -32.542969 -26.820312 -30.753906 -25.746094 C -28.25 -23.601562 -25.746094 -18.953125 -25.746094 -16.449219 C -25.746094 -15.378906 -24.316406 -14.660156 -23.246094 -14.660156 C -22.171875 -14.660156 -20.027344 -13.589844 -18.59375 -12.515625 C -17.164062 -11.085938 -14.660156 -10.011719 -12.515625 -10.011719 C -10.371094 -10.011719 -8.582031 -9.296875 -8.226562 -8.582031 C -7.511719 -6.4375 -0.359375 -6.792969 -0.359375 -8.941406 C -0.359375 -10.011719 1.074219 -13.589844 3.21875 -17.164062 C 5.363281 -20.742188 7.152344 -23.960938 7.152344 -25.03125 C 7.152344 -25.746094 10.371094 -32.898438 14.660156 -40.765625 C 23.960938 -59.003906 28.25 -68.304688 28.25 -69.734375 C 28.25 -70.449219 28.964844 -71.164062 29.324219 -71.164062 C 30.039062 -71.523438 32.183594 -75.8125 34.332031 -81.175781 C 39.695312 -93.335938 41.839844 -98.699219 43.984375 -102.277344 C 44.703125 -104.0625 47.5625 -109.785156 50.421875 -114.792969 C 52.925781 -120.15625 59.003906 -130.886719 64.011719 -139.109375 C 68.660156 -147.335938 74.023438 -155.917969 75.457031 -158.421875 C 77.601562 -161.996094 86.542969 -173.082031 92.621094 -179.164062 C 97.984375 -184.527344 109.429688 -191.679688 113.363281 -192.394531 C 117.296875 -192.75 118.726562 -192.394531 123.375 -187.746094 C 126.59375 -184.882812 129.453125 -182.738281 129.453125 -182.738281 C 129.8125 -182.738281 132.316406 -180.949219 134.820312 -178.804688 C 142.328125 -172.726562 158.421875 -168.792969 160.566406 -172.726562 C 161.28125 -173.441406 161.996094 -173.441406 162.355469 -173.441406 C 164.5 -172.011719 168.792969 -176.300781 168.078125 -178.804688 C 166.644531 -181.664062 162.355469 -185.242188 159.492188 -185.242188 Z M 23.246094 -184.527344 C 23.960938 -184.882812 24.675781 -184.527344 24.675781 -183.453125 C 24.675781 -182.382812 23.960938 -181.308594 23.246094 -181.308594 C 21.8125 -181.308594 21.8125 -183.453125 23.246094 -184.527344 Z M 10.726562 -109.785156 C 10.371094 -109.070312 9.65625 -108.714844 9.65625 -109.429688 C 9.65625 -110.144531 10.371094 -111.214844 10.726562 -112.289062 C 11.445312 -113.363281 12.160156 -113.71875 12.160156 -113.003906 C 12.160156 -112.289062 11.445312 -110.859375 10.726562 -109.785156 Z M 18.238281 -170.9375 L 15.734375 -168.433594 L 16.449219 -171.296875 C 16.449219 -173.082031 16.808594 -174.871094 17.164062 -174.871094 C 17.164062 -174.871094 17.523438 -175.585938 17.523438 -176.300781 C 17.878906 -178.804688 20.027344 -178.445312 20.382812 -175.945312 C 20.382812 -174.871094 19.667969 -172.726562 18.238281 -170.9375 Z M 16.449219 -186.316406 C 18.238281 -188.816406 19.667969 -190.25 19.667969 -189.175781 C 19.667969 -188.460938 18.238281 -185.597656 16.449219 -183.097656 C 14.660156 -180.59375 13.230469 -179.164062 13.230469 -179.878906 C 13.230469 -180.949219 14.660156 -183.453125 16.449219 -186.316406 Z M 7.867188 -150.195312 C 8.582031 -151.984375 9.296875 -153.773438 8.941406 -153.773438 C 8.582031 -153.773438 8.941406 -155.203125 9.65625 -156.632812 C 10.726562 -158.0625 11.445312 -159.851562 11.445312 -160.210938 C 12.515625 -164.859375 13.945312 -167.71875 14.660156 -167.71875 C 16.449219 -167.71875 16.09375 -163.070312 13.945312 -159.136719 C 12.875 -157.347656 12.160156 -154.84375 12.160156 -153.773438 C 12.160156 -152.339844 11.445312 -151.269531 10.726562 -150.554688 C 10.011719 -150.195312 9.65625 -148.765625 9.65625 -147.335938 C 9.65625 -146.261719 8.582031 -145.191406 7.867188 -145.191406 C 5.363281 -145.191406 5.363281 -145.546875 7.867188 -150.195312 Z M 3.21875 -128.023438 C 2.503906 -127.308594 2.144531 -125.878906 2.144531 -125.519531 C 2.503906 -124.804688 1.429688 -120.871094 0.359375 -116.9375 C -3.21875 -105.136719 -9.296875 -80.820312 -8.941406 -79.390625 C -8.941406 -78.675781 -9.296875 -77.242188 -9.65625 -76.171875 C -10.371094 -73.308594 -14.660156 -53.285156 -16.449219 -43.628906 C -16.808594 -41.125 -17.878906 -37.90625 -18.953125 -36.476562 C -20.382812 -34.332031 -20.382812 -34.6875 -20.027344 -39.695312 C -18.953125 -47.5625 -15.734375 -62.582031 -14.304688 -66.515625 C -13.589844 -68.304688 -12.875 -71.878906 -12.875 -74.382812 C -12.875 -78.675781 -11.445312 -87.257812 -8.582031 -95.480469 C -7.867188 -98.34375 -6.078125 -104.78125 -5.007812 -109.785156 C -2.859375 -120.15625 0.359375 -131.601562 2.144531 -135.535156 C 2.503906 -136.964844 3.574219 -139.46875 3.933594 -140.898438 C 4.292969 -142.328125 5.363281 -143.757812 6.4375 -143.757812 C 8.582031 -143.757812 8.582031 -142.328125 6.792969 -138.039062 C 6.078125 -135.890625 5.363281 -133.386719 5.007812 -131.957031 C 4.648438 -130.527344 3.933594 -128.738281 3.21875 -128.023438 Z M 5.007812 -92.261719 C 4.648438 -92.976562 5.363281 -93.695312 6.4375 -93.695312 C 7.511719 -93.695312 8.226562 -93.335938 8.226562 -92.976562 C 8.226562 -91.90625 5.722656 -91.191406 5.007812 -92.261719 Z M 29.679688 -112.289062 C 28.609375 -110.859375 28.609375 -110.859375 28.964844 -112.648438 C 29.679688 -114.078125 30.398438 -114.792969 30.753906 -114.433594 C 31.113281 -114.078125 30.753906 -113.003906 29.679688 -112.289062 Z M 33.617188 -119.800781 C 33.257812 -118.367188 32.542969 -117.296875 31.828125 -117.296875 C 31.46875 -117.296875 31.46875 -118.367188 32.183594 -119.800781 C 32.898438 -121.230469 33.617188 -122.660156 33.972656 -122.660156 C 34.332031 -122.660156 33.972656 -121.230469 33.617188 -119.800781 Z M 89.042969 -196.328125 C 88.6875 -195.613281 88.328125 -195.253906 87.972656 -195.253906 C 87.613281 -195.253906 87.257812 -195.613281 86.898438 -196.328125 C 86.542969 -196.683594 86.898438 -197.402344 87.972656 -197.402344 C 89.042969 -197.402344 89.402344 -196.683594 89.042969 -196.328125 Z M 89.042969 -200.261719 C 87.972656 -199.1875 87.257812 -199.1875 87.257812 -199.902344 C 87.257812 -200.617188 88.328125 -201.335938 89.042969 -202.050781 C 90.117188 -202.40625 91.191406 -202.40625 91.191406 -202.050781 C 91.191406 -202.050781 90.117188 -200.976562 89.042969 -200.261719 Z M 101.5625 -200.976562 C 99.414062 -200.976562 96.914062 -200.261719 95.839844 -199.546875 C 92.261719 -198.117188 93.335938 -199.902344 97.269531 -202.050781 C 101.5625 -204.195312 104.78125 -204.550781 104.78125 -202.765625 C 104.78125 -202.050781 103.347656 -201.335938 101.5625 -200.976562 Z M 113.71875 -201.335938 C 113.003906 -201.335938 112.289062 -202.050781 111.933594 -202.765625 C 111.574219 -203.480469 111.933594 -203.835938 113.003906 -203.835938 C 114.078125 -203.835938 114.792969 -203.480469 114.792969 -202.765625 C 114.792969 -202.050781 114.433594 -201.335938 113.71875 -201.335938 Z M 113.71875 -201.335938 "/></g></g></g><g fill="#ffffff" fill-opacity="1"><g transform="translate(1112.606952, 394.076908)"><g><path d="M 125.519531 -204.195312 C 120.871094 -209.203125 116.582031 -213.492188 116.222656 -213.492188 C 116.222656 -213.492188 113.71875 -214.921875 110.859375 -216.710938 C 108 -218.5 104.421875 -220.289062 102.992188 -220.289062 C 101.203125 -220.289062 98.699219 -221.003906 97.269531 -222.074219 C 94.410156 -224.578125 87.613281 -224.9375 89.042969 -222.789062 C 89.402344 -222.074219 88.6875 -221.359375 87.613281 -221.359375 C 86.183594 -221.359375 85.46875 -222.074219 86.183594 -223.507812 C 86.542969 -224.578125 85.46875 -225.652344 83.679688 -226.007812 C 80.105469 -227.082031 79.03125 -225.652344 81.535156 -223.863281 C 83.324219 -222.789062 82.964844 -222.789062 81.175781 -223.507812 C 79.746094 -223.863281 77.242188 -224.222656 75.457031 -224.222656 C 73.667969 -224.222656 71.164062 -225.292969 70.089844 -226.367188 C 69.019531 -227.441406 66.515625 -228.15625 65.085938 -228.15625 C 63.296875 -228.15625 60.4375 -229.585938 59.003906 -231.015625 C 56.144531 -233.519531 56.144531 -233.519531 45.773438 -228.511719 C 36.476562 -223.863281 35.046875 -222.789062 31.113281 -215.28125 C 26.105469 -206.699219 9.65625 -170.9375 6.792969 -163.070312 C 6.792969 -162.355469 6.078125 -161.28125 5.722656 -160.210938 C 3.933594 -156.632812 0.714844 -144.832031 1.074219 -144.117188 C 1.429688 -143.757812 2.859375 -147.335938 4.648438 -152.339844 C 9.65625 -165.574219 14.660156 -176.300781 15.734375 -176.300781 C 17.878906 -176.300781 17.164062 -172.011719 15.019531 -169.863281 C 12.875 -167.359375 4.648438 -144.117188 3.933594 -138.394531 C 3.574219 -136.25 2.859375 -133.03125 2.144531 -131.601562 C 1.429688 -130.167969 0.714844 -128.023438 0.714844 -126.59375 C 0.714844 -125.164062 -0.714844 -121.585938 -2.144531 -118.367188 C -3.574219 -115.507812 -4.648438 -111.933594 -4.292969 -110.859375 C -3.933594 -109.429688 -4.292969 -108.355469 -5.007812 -108 C -5.363281 -108 -6.4375 -104.78125 -6.792969 -101.203125 C -7.152344 -97.628906 -7.867188 -94.410156 -8.226562 -93.335938 C -8.582031 -92.621094 -8.582031 -91.90625 -7.867188 -91.546875 C -6.4375 -90.832031 -6.792969 -82.964844 -8.582031 -75.8125 C -9.296875 -71.878906 -9.65625 -71.523438 -10.371094 -73.667969 C -11.085938 -75.457031 -11.445312 -74.023438 -11.800781 -69.734375 C -11.800781 -51.136719 8.582031 -29.679688 32.183594 -23.246094 C 40.050781 -21.097656 45.773438 -20.742188 45.773438 -22.53125 C 45.773438 -23.246094 48.636719 -24.675781 51.851562 -25.746094 C 55.429688 -26.464844 58.289062 -27.535156 58.289062 -28.25 C 58.289062 -28.964844 61.152344 -30.753906 65.085938 -32.542969 C 74.742188 -37.550781 97.984375 -61.867188 97.984375 -67.230469 C 97.984375 -67.945312 98.699219 -69.019531 100.128906 -69.375 C 101.203125 -69.734375 101.917969 -70.808594 101.917969 -71.878906 C 101.917969 -72.953125 103.347656 -75.097656 104.78125 -76.171875 C 106.566406 -77.601562 107.640625 -79.746094 107.640625 -80.460938 C 107.640625 -81.535156 108.714844 -82.609375 109.785156 -82.964844 C 110.859375 -83.324219 112.648438 -86.183594 113.71875 -89.402344 C 115.148438 -92.261719 116.582031 -94.765625 117.296875 -94.765625 C 118.011719 -94.765625 118.367188 -95.480469 118.367188 -96.195312 C 118.367188 -96.914062 120.15625 -100.128906 122.300781 -103.347656 C 124.449219 -106.566406 126.953125 -110.5 127.667969 -112.648438 C 128.382812 -114.433594 130.167969 -118.367188 131.601562 -121.230469 C 138.394531 -136.605469 141.253906 -150.910156 140.898438 -169.507812 C 140.898438 -183.8125 136.964844 -192.75 125.519531 -204.195312 Z M 0.714844 -75.097656 C 0.359375 -74.742188 0 -71.164062 0 -66.871094 C 0.359375 -62.582031 0 -59.363281 -1.074219 -59.363281 C -1.789062 -59.363281 -2.144531 -63.65625 -2.144531 -70.808594 C -1.789062 -79.390625 -1.074219 -82.609375 0 -82.609375 C 2.144531 -82.609375 2.859375 -76.171875 0.714844 -75.097656 Z M 8.226562 -115.867188 C 7.867188 -114.433594 6.4375 -107.28125 5.007812 -99.773438 C 3.933594 -92.621094 2.503906 -86.542969 1.789062 -86.542969 C 0 -86.542969 -1.074219 -90.476562 0 -92.261719 C 0.714844 -93.335938 1.429688 -96.195312 1.429688 -98.699219 C 1.789062 -105.136719 7.152344 -125.164062 8.941406 -126.59375 C 10.371094 -128.023438 10.011719 -123.019531 8.226562 -115.867188 Z M 116.222656 -203.121094 C 117.296875 -204.550781 122.300781 -200.976562 126.234375 -196.328125 C 128.738281 -193.109375 130.167969 -188.460938 131.601562 -179.878906 C 132.671875 -173.082031 133.03125 -167.359375 132.671875 -166.644531 C 132.316406 -165.929688 131.601562 -163.785156 131.601562 -162.355469 C 129.097656 -145.546875 125.519531 -136.605469 121.585938 -137.320312 C 120.515625 -137.320312 119.085938 -136.964844 119.085938 -135.890625 C 118.367188 -134.820312 119.085938 -134.460938 120.515625 -135.175781 C 121.585938 -135.535156 122.660156 -135.175781 122.660156 -134.460938 C 122.660156 -133.746094 121.945312 -133.03125 120.871094 -132.316406 C 118.367188 -131.601562 116.222656 -135.890625 118.011719 -138.394531 C 118.367188 -139.109375 116.9375 -139.824219 114.792969 -139.824219 C 112.648438 -139.824219 111.933594 -140.183594 113.363281 -140.539062 C 115.148438 -140.898438 115.867188 -141.972656 115.148438 -143.757812 C 114.792969 -145.191406 114.792969 -146.621094 115.867188 -146.621094 C 116.582031 -146.621094 117.296875 -145.546875 117.296875 -144.117188 C 117.296875 -142.6875 117.652344 -142.328125 119.085938 -143.757812 C 120.871094 -145.191406 124.089844 -159.851562 124.449219 -167.71875 C 124.804688 -172.011719 121.945312 -172.011719 121.585938 -167.71875 C 120.871094 -160.566406 119.800781 -157.347656 118.367188 -158.0625 C 117.652344 -158.777344 117.652344 -160.210938 118.367188 -161.996094 C 119.085938 -163.785156 119.800781 -165.929688 119.800781 -167.003906 C 119.441406 -168.078125 119.800781 -172.011719 119.800781 -175.945312 C 120.15625 -182.382812 120.15625 -182.382812 121.945312 -179.164062 C 123.019531 -177.375 123.375 -175.230469 123.019531 -174.871094 C 122.660156 -174.15625 123.019531 -173.796875 124.089844 -173.796875 C 124.804688 -173.796875 125.164062 -174.871094 124.804688 -176.300781 C 123.019531 -182.738281 122.300781 -190.25 124.089844 -189.53125 C 124.804688 -189.175781 125.519531 -189.175781 125.519531 -190.25 C 125.519531 -192.75 118.367188 -202.40625 116.9375 -202.40625 C 115.867188 -202.40625 115.867188 -202.765625 116.222656 -203.121094 Z M 115.148438 -129.8125 C 114.792969 -128.738281 114.792969 -129.097656 114.433594 -130.886719 C 114.433594 -132.316406 114.792969 -133.03125 115.148438 -132.316406 C 115.867188 -131.957031 115.867188 -130.886719 115.148438 -129.8125 Z M 113.003906 -136.25 C 113.003906 -134.105469 112.289062 -133.746094 111.214844 -135.535156 C 110.5 -136.25 110.859375 -137.320312 111.574219 -137.679688 C 112.648438 -138.039062 113.003906 -137.679688 113.003906 -136.25 Z M 117.296875 -152.339844 C 115.148438 -154.488281 115.507812 -155.917969 118.367188 -155.917969 C 120.15625 -155.917969 121.230469 -155.558594 121.230469 -154.84375 C 121.230469 -154.488281 120.871094 -153.414062 120.15625 -152.339844 C 119.441406 -150.910156 118.726562 -150.910156 117.296875 -152.339844 Z M 118.367188 -188.101562 C 118.726562 -190.605469 118.726562 -190.605469 120.15625 -188.460938 C 120.871094 -187.03125 121.230469 -185.242188 120.871094 -184.527344 C 120.15625 -182.382812 118.367188 -184.882812 118.367188 -188.101562 Z M 93.695312 -221.359375 C 94.410156 -221.359375 95.125 -221.003906 95.125 -219.929688 C 95.125 -219.214844 94.765625 -218.855469 94.765625 -218.855469 C 94.410156 -218.855469 93.695312 -219.214844 93.335938 -219.929688 C 92.621094 -221.003906 92.976562 -221.359375 93.695312 -221.359375 Z M 104.0625 -97.628906 C 102.992188 -97.628906 101.917969 -96.914062 101.917969 -96.195312 C 101.917969 -95.480469 101.5625 -94.765625 100.847656 -94.765625 C 99.773438 -94.765625 100.128906 -96.195312 100.847656 -97.984375 C 102.632812 -101.917969 104.0625 -102.277344 105.496094 -99.414062 C 105.851562 -98.34375 105.496094 -97.628906 104.0625 -97.628906 Z M 106.210938 -124.089844 C 105.496094 -123.734375 104.78125 -123.734375 104.78125 -124.449219 C 104.78125 -125.519531 105.496094 -126.234375 106.210938 -126.59375 C 106.925781 -127.308594 107.640625 -126.953125 107.640625 -126.234375 C 107.640625 -125.519531 106.925781 -124.449219 106.210938 -124.089844 Z M 110.144531 -141.613281 C 108.714844 -139.46875 108 -137.320312 108.355469 -136.605469 C 108.714844 -136.25 108.714844 -135.535156 107.640625 -135.535156 C 106.925781 -135.535156 106.925781 -134.460938 107.28125 -133.03125 C 107.640625 -131.242188 107.28125 -130.167969 106.566406 -130.167969 C 105.851562 -130.167969 104.0625 -128.023438 102.632812 -125.164062 C 99.773438 -119.085938 99.058594 -116.222656 100.847656 -117.296875 C 102.277344 -118.367188 101.5625 -110.144531 99.773438 -108.714844 C 99.414062 -108 99.414062 -108.714844 99.773438 -110.144531 C 101.203125 -114.078125 99.414062 -115.867188 96.554688 -113.003906 C 95.125 -111.574219 93.695312 -109.785156 93.695312 -109.070312 C 93.695312 -108 88.6875 -100.847656 78.316406 -87.257812 C 72.238281 -79.390625 58.648438 -65.800781 51.851562 -60.792969 C 48.277344 -58.289062 43.984375 -55.070312 42.554688 -53.640625 C 41.484375 -52.570312 37.550781 -50.421875 34.332031 -49.351562 C 31.46875 -47.917969 27.535156 -46.132812 26.464844 -45.417969 C 20.742188 -42.554688 20.382812 -43.269531 19.667969 -57.21875 C 18.953125 -75.457031 19.3125 -81.894531 21.8125 -84.753906 C 22.171875 -85.828125 22.53125 -86.542969 21.8125 -86.542969 C 21.457031 -86.542969 21.457031 -87.257812 22.171875 -88.328125 C 22.53125 -89.042969 23.246094 -91.191406 23.246094 -92.621094 C 24.316406 -101.5625 28.25 -117.296875 31.46875 -125.519531 C 32.542969 -127.667969 33.617188 -131.242188 34.332031 -133.386719 C 34.6875 -135.890625 35.761719 -138.753906 36.476562 -140.539062 C 37.191406 -141.972656 38.621094 -146.261719 40.050781 -150.554688 C 43.628906 -160.210938 51.136719 -179.164062 52.925781 -182.023438 C 53.640625 -183.097656 54.714844 -184.882812 55.070312 -185.957031 C 56.144531 -188.101562 59.722656 -192.75 64.011719 -197.042969 C 65.085938 -198.472656 65.800781 -199.902344 65.441406 -200.261719 C 64.726562 -200.617188 65.800781 -201.691406 67.589844 -202.050781 C 69.734375 -202.40625 70.449219 -203.480469 70.089844 -207.414062 C 69.734375 -212.421875 70.089844 -212.421875 76.171875 -213.492188 C 79.746094 -214.207031 85.46875 -213.851562 90.476562 -213.136719 C 103.347656 -210.988281 108.355469 -206.699219 113.003906 -194.183594 C 116.222656 -185.957031 117.652344 -168.433594 115.507812 -160.210938 C 114.792969 -157.707031 114.078125 -154.488281 113.71875 -153.058594 C 113.363281 -151.625 114.078125 -150.554688 115.148438 -150.554688 C 116.222656 -150.554688 117.296875 -149.839844 118.011719 -149.125 C 118.367188 -148.050781 118.011719 -148.050781 115.867188 -148.40625 C 113.71875 -149.125 113.003906 -148.765625 113.003906 -147.335938 C 113.003906 -145.90625 111.933594 -143.402344 110.144531 -141.613281 Z M 126.953125 -121.945312 C 125.164062 -118.011719 122.660156 -114.792969 121.585938 -114.792969 C 120.871094 -115.148438 119.085938 -113.71875 118.367188 -111.933594 C 118.011719 -109.785156 116.582031 -108.355469 115.867188 -108.355469 C 115.148438 -108.355469 113.71875 -108 112.289062 -107.640625 C 110.859375 -107.28125 110.144531 -107.28125 110.859375 -108 C 112.289062 -109.070312 115.867188 -113.71875 119.085938 -119.441406 C 123.734375 -126.59375 130.167969 -135.535156 130.886719 -135.535156 C 132.671875 -135.535156 130.886719 -129.8125 126.953125 -121.945312 Z M 134.820312 -144.117188 C 134.105469 -140.183594 132.671875 -136.964844 131.957031 -136.964844 C 131.242188 -136.964844 130.886719 -138.753906 131.601562 -140.898438 C 131.957031 -142.6875 133.03125 -148.40625 134.105469 -153.058594 C 134.820312 -157.707031 136.25 -161.640625 136.605469 -161.640625 C 138.039062 -161.640625 137.679688 -157.347656 134.820312 -144.117188 Z M 128.023438 -183.8125 C 128.023438 -185.957031 127.667969 -187.386719 126.953125 -187.386719 C 125.519531 -187.386719 125.519531 -184.167969 126.59375 -180.949219 C 127.308594 -179.164062 128.023438 -181.308594 128.023438 -183.8125 Z M 128.023438 -183.8125 "/></g></g></g><g fill="#ffffff" fill-opacity="1"><g transform="translate(1273.533992, 394.076908)"><g/></g></g></svg>